<svg width="14" height="14" viewBox="0 0 14 14" fill="none" xmlns="http://www.w3.org/2000/svg">
<path fill-rule="evenodd" clip-rule="evenodd" d="M13.6667 7C13.6667 3.318 10.6821 0.33333 7.00008 0.33333C3.31808 0.333329 0.333415 3.318 0.333415 7C0.333414 10.682 3.31808 13.6667 7.00008 13.6667C10.6821 13.6667 13.6667 10.682 13.6667 7ZM1.66675 7C1.66675 4.05448 4.05456 1.66666 7.00008 1.66666C9.9456 1.66666 12.3334 4.05448 12.3334 7C12.3334 9.94552 9.9456 12.3333 7.00008 12.3333C4.05456 12.3333 1.66675 9.94552 1.66675 7ZM6.33342 5L6.33342 3.66666L7.66675 3.66666L7.66675 5L6.33342 5ZM6.33342 6.33333L6.33341 10.3333L7.66675 10.3333L7.66675 6.33333L6.33342 6.33333Z" fill="#007DBC"/>
</svg>
