<svg width="580" height="800" viewBox="0 0 580 800" fill="none" xmlns="http://www.w3.org/2000/svg">
<g clip-path="url(#clip0_408_6468)">
<rect width="580" height="800" fill="#7EBEE0"/>
<path d="M579.939 742.751C571.436 747.535 562.69 751.771 553.761 755.489C542.12 760.335 530.265 764.419 518.166 767.832C512.711 769.417 507.195 770.818 501.649 772.159C501.1 772.281 500.582 772.404 500.064 772.495C498.571 772.861 497.078 773.165 495.584 773.531C495.066 773.653 494.548 773.744 494.03 773.836C490.952 774.506 487.874 775.146 484.735 775.756C484.217 775.847 483.669 775.968 483.151 776.029C470.869 778.345 458.435 780.144 445.971 781.546L444.417 781.728C440.15 782.216 435.914 782.612 431.648 783.008C431.099 783.069 430.581 783.1 430.063 783.161C424.059 783.679 418.056 784.136 412.083 784.532C402.818 785.141 393.584 785.599 384.32 785.965C377.402 786.239 370.484 786.452 363.597 786.634C329.648 787.579 295.668 787.884 261.719 787.091C221.096 786.116 180.534 783.587 140.215 778.681C126.928 777.096 113.641 775.238 100.446 772.8C94.7772 771.764 89.1393 770.666 83.5015 769.386C83.0139 769.264 82.5567 769.173 82.0691 769.051C79.0826 768.38 76.096 767.68 73.14 766.948C72.6828 766.826 72.2257 766.704 71.7381 766.582C59.9748 763.595 48.3028 759.97 36.9662 755.52C36.4786 755.338 36.0214 755.185 35.5643 754.972C34.4367 754.545 33.3701 754.118 32.273 753.661C31.1454 753.204 29.9874 752.716 28.8598 752.228C28.4027 752.015 27.9456 751.832 27.4884 751.619C26.6961 751.284 25.9037 750.949 25.0809 750.553L23.7095 749.943C18.224 747.444 12.7995 744.701 7.52731 741.745C4.99789 740.343 2.46847 738.851 0 737.357V484.567C0 447.141 17 420.325 39.0994 437.483C40.227 438.641 41.3241 439.829 42.3907 441.048C42.8478 441.536 43.2745 442.023 43.6707 442.511C46.2001 445.406 48.5771 448.392 50.8628 451.44C51.2894 452.049 51.7465 452.628 52.1732 453.237C52.6608 453.908 53.1484 454.609 53.636 455.279C53.8493 451.622 54.5807 448.087 55.7083 444.674C56.1654 443.272 56.6835 441.932 57.293 440.621C58.9691 436.873 61.1633 433.398 63.8451 430.198C64.3327 429.558 64.8508 428.98 65.3993 428.401C65.6126 428.126 65.9174 427.821 66.1612 427.547C66.6183 427.059 67.1059 426.541 67.624 426.054C69.3306 424.347 71.1896 422.732 73.1704 421.27C73.5971 420.965 74.0542 420.63 74.5113 420.325C77.6807 418.07 81.1244 416.119 84.69 414.565C85.0862 414.351 85.4519 414.2 85.848 414.017C86.9756 413.56 88.0727 413.164 89.2003 412.798C89.6879 412.585 90.145 412.462 90.6326 412.31C92.0954 411.822 93.5887 411.426 95.0515 411.091C95.5391 410.969 96.0267 410.847 96.5143 410.786C96.9409 410.695 97.3676 410.603 97.7942 410.572C98.2818 410.451 98.7694 410.36 99.257 410.329C101.604 409.964 103.95 409.75 106.297 409.75C106.541 409.75 106.845 409.75 107.089 409.75C132.901 409.75 156.672 425.993 171.727 446.96C184.008 464.026 191.413 484.018 197.112 504.375C198.392 509.008 199.611 513.64 200.769 518.272C205.066 510.196 211.801 504.284 219.816 500.535C236.303 492.734 258.001 493.922 274.214 503.492C275.768 504.406 277.261 505.38 278.755 506.386C279.791 507.117 280.797 507.849 281.741 508.611C282.625 509.312 283.509 510.013 284.362 510.744C286.404 512.451 288.415 514.31 290.274 516.26C296.004 522.172 300.941 528.938 305.146 536.221C321.779 564.459 317.303 571.699 333.518 539.269C338.211 529.761 343.575 520.71 350.097 512.634C354.942 506.6 360.428 501.114 366.736 496.451C367.041 496.208 367.376 495.964 367.681 495.75C378.865 487.644 393.31 483.316 407.146 483.499C409.035 483.499 410.894 483.591 412.784 483.774H412.906C414.033 483.896 415.1 484.017 416.197 484.231C416.715 484.292 417.264 484.383 417.782 484.505C418.787 484.657 419.763 484.871 420.738 485.115L422.353 485.541C423.724 485.907 425.096 486.364 426.406 486.852C426.894 487.035 427.381 487.218 427.869 487.431C427.93 487.431 427.96 487.43 428.021 487.491C429.728 488.162 431.404 488.985 432.989 489.868C433.476 490.112 433.933 490.387 434.391 490.692C436.189 491.758 437.926 492.978 439.541 494.349C442.649 496.878 445.422 499.956 447.678 503.522L448.013 504.039C448.226 502.241 448.5 500.444 448.805 498.676C448.805 498.463 448.866 498.28 448.927 498.067C449.14 496.634 449.445 495.202 449.719 493.77C450.542 489.778 451.578 485.785 452.767 481.854C453.194 480.482 453.62 479.142 454.108 477.771C454.352 476.978 454.656 476.185 454.931 475.393C455.601 473.473 456.363 471.614 457.155 469.755C457.521 468.719 457.948 467.744 458.435 466.769C459.654 463.874 461.026 461.07 462.488 458.327C462.946 457.474 463.433 456.59 463.921 455.736C465.201 453.42 466.603 451.135 468.065 448.91C468.522 448.209 468.98 447.478 469.467 446.808C472.271 442.663 475.288 438.732 478.61 434.984C479.036 434.465 479.493 433.947 479.951 433.429C480.987 432.271 481.992 431.205 483.059 430.108C489.063 423.982 495.706 418.557 502.99 413.955C515.149 406.306 528.985 401.309 543.217 399.236C659 397 579.939 676.5 579.939 742.751Z" fill="#3D92C3"/>
<path d="M465.03 -87.7785L488.177 751.133L488.512 772.313L488.969 800.167H587.464L568.722 619.176L568.265 614.787L557.873 514.493L556.746 503.797L545.531 395.548L544.647 386.832L539.588 337.981L539.131 333.532L522.049 -25C519.642 -28.6265 517.112 -32.1616 514.522 -35.6967C514.065 -36.3672 513.577 -36.9766 513.028 -37.6471C511.84 -39.2927 510.56 -40.9384 509.28 -42.5536C508.853 -43.1326 508.396 -43.6811 507.939 -44.2297C505.257 -47.6124 502.515 -50.8732 499.65 -54.1035C499.101 -54.8045 498.492 -55.4445 497.943 -56.1149C495.932 -58.3396 493.951 -60.5338 491.879 -62.728C489.898 -64.8003 487.917 -66.8726 485.875 -68.8839C485.51 -69.2496 485.174 -69.6153 484.778 -69.9506C481.456 -73.2723 478.104 -76.4722 474.6 -79.5807C474.142 -80.0073 473.655 -80.434 473.198 -80.8302C471.735 -82.1406 470.242 -83.4206 468.779 -84.67C468.322 -85.0967 467.834 -85.4928 467.377 -85.828C466.585 -86.5289 465.792 -87.1995 465 -87.809L465.03 -87.7785Z" fill="#10608F"/>
<g opacity="0.63">
<g opacity="0.32">
<path d="M534.285 410.207C535.656 443.09 538.247 476.369 541.995 509.068C546.323 546.674 552.692 585.378 568.691 619.205L568.234 614.816C553.606 582.086 547.511 544.998 543.397 508.885C539.649 476.216 537.058 442.998 535.687 410.116C534.712 387.168 534.346 361.904 539.557 337.982L539.1 333.532C532.883 358.827 533.249 385.797 534.285 410.207Z" fill="#001018"/>
<path d="M547.785 463.813C550.284 481.184 553.819 498.25 557.872 514.523L556.745 503.827C553.758 490.783 551.137 477.283 549.187 463.6C545.774 439.951 544.585 417.217 545.53 395.549L544.646 386.833C542.879 411.122 543.945 436.873 547.785 463.813Z" fill="#001018"/>
</g>
<g opacity="0.48">
<path d="M487.019 51.5862C487.354 47.8073 488.177 44.516 489.731 42.1999C491.347 39.7009 492.84 38.6344 494.272 39.0001C497.716 39.8534 498.813 48.9044 499.605 58.0773L499.697 58.8392C499.697 59.4182 499.788 59.9363 499.849 60.363C501.739 78.8003 518.712 460.065 519.565 478.35L522.643 543.75C523.436 561.151 524.289 579.101 524.441 596.898C524.533 607.656 524.38 619.053 521.424 629.506C520.967 631.121 520.297 632.889 518.925 633.377C518.682 633.468 518.377 633.529 518.133 633.529C517.767 633.529 517.371 633.407 517.005 633.224C515.39 632.219 514.507 629.08 514.202 626.703C510.728 595.892 509.417 564.32 508.168 533.784L488.421 82.7317C488.33 80.4156 488.055 77.429 487.75 74.2596C487.05 66.9151 486.257 58.4431 486.989 51.5557L487.019 51.5862ZM489.03 74.1681C489.305 77.368 489.609 80.3546 489.701 82.7317L509.448 533.754C510.667 564.26 511.977 595.801 515.482 626.581C515.726 628.836 516.579 631.487 517.676 632.188C517.95 632.371 518.224 632.371 518.529 632.279C519.413 631.944 519.962 630.359 520.266 629.201C523.192 618.931 523.314 607.595 523.222 596.928C523.07 579.192 522.217 561.212 521.424 543.841L518.346 478.38C517.493 460.187 500.52 78.8918 498.63 60.5458C498.569 59.9058 498.478 59.1135 498.417 58.2298C498.417 58.1383 498.417 58.0469 498.417 57.9555C497.96 52.6529 496.863 40.9505 494.059 40.2495C493.236 40.0057 492.078 40.9809 490.828 42.9313C489.366 45.1559 488.604 48.4168 488.269 52.1957C487.629 58.9916 488.451 67.4636 489.091 74.2596L489.03 74.1681Z" fill="#001018"/>
<path d="M518.556 -6.41994C519.104 11.5908 528.982 337.586 529.318 355.231C529.744 376.594 530.201 398.719 530.902 420.417C535.108 547.528 549.126 675.158 572.684 800.167H574.146C550.589 675.128 536.54 547.467 532.335 420.387C531.664 398.688 531.207 376.563 530.75 355.2C530.415 338.195 520.537 12.8403 520.049 -4.5C519.592 -5.17045 519.104 -5.7799 518.556 -6.45035V-6.41994Z" fill="#001018"/>
<path d="M546.139 640.171C553.027 692.588 560.128 746.742 564.943 800.195H566.375C561.59 746.681 554.459 692.466 547.572 639.989C527.96 490.906 519.547 352.557 525.549 202.5C525.122 201.921 525.506 191.549 525.049 191C518.665 341.663 526.466 490.525 546.139 640.202V640.171Z" fill="#001018"/>
<path d="M520.785 408.348C521.15 420.874 521.516 433.765 522.004 446.503C524.96 524.55 531.939 603.357 542.849 680.672C543.367 684.36 543.915 688.017 544.433 691.704C549.553 727.421 554.795 764.082 552.235 800.195H553.667C556.227 763.99 550.985 727.238 545.866 691.521C545.317 687.834 544.799 684.177 544.281 680.489C533.371 603.205 526.362 524.458 523.436 446.473C522.948 433.765 522.583 420.813 522.217 408.348C521.394 380.037 508.621 64.7075 506.549 36.0001C505.482 21.5854 504.324 9.7916 502.801 -0.844169C502.252 -1.54509 501.642 -2.18508 501.094 -2.85553C502.709 8.29832 504.02 20.6712 505.117 36.0915C507.158 64.7989 519.962 380.098 520.785 408.379V408.348Z" fill="#001018"/>
<path d="M504.297 713.372C505.425 742.019 506.583 771.305 503.901 800.196H505.333C507.985 771.244 506.857 741.958 505.729 713.311L490.401 321.525C489.578 301.198 481.537 -0.0885639 482.451 -20.7506C481.994 -21.1773 481.506 -21.6038 481.049 -22C480.043 -0.850357 488.115 300.863 488.968 321.616L504.297 713.403V713.372Z" fill="#001018"/>
<path d="M475.178 -34.6581C474.842 -13.7827 483.483 295.316 484.793 315.887L485.129 321.586C494.18 464.056 495.216 608.356 488.176 751.162L488.511 772.342C496.709 622.619 496.039 471.035 486.53 321.494L486.195 315.796C484.885 295.621 476.275 -13.0513 476.549 -33.5C476.092 -33.9266 475.604 -34.3228 475.147 -34.6581H475.178Z" fill="#001018"/>
</g>
</g>
<path d="M124.019 -87.7781L100.872 751.133L100.537 772.313L100.08 800.167H1.58472L20.3268 619.176L20.784 614.788L31.1759 514.494L32.3035 503.797L43.5183 395.548L44.4021 386.833L49.4609 337.981L49.918 333.532L67 -24.9996C69.4075 -28.6261 71.937 -32.1612 74.5273 -35.6963C74.9845 -36.3668 75.472 -36.9762 76.0206 -37.6467C77.2091 -39.2923 78.4891 -40.938 79.769 -42.5532C80.1957 -43.1322 80.6528 -43.6808 81.1099 -44.2293C83.7917 -47.612 86.5345 -50.8728 89.3991 -54.1032C89.9477 -54.8041 90.5572 -55.4441 91.1057 -56.1145C93.1171 -58.3392 95.0979 -60.5334 97.1702 -62.7276C99.1511 -64.7999 101.132 -66.8722 103.174 -68.8836C103.54 -69.2493 103.875 -69.615 104.271 -69.9502C107.593 -73.272 110.945 -76.4719 114.45 -79.5803C114.907 -80.007 115.394 -80.4336 115.851 -80.8298C117.314 -82.1402 118.807 -83.4202 120.27 -84.6697C120.727 -85.0963 121.215 -85.4924 121.672 -85.8276C122.464 -86.5286 123.257 -87.1991 124.049 -87.8086L124.019 -87.7781Z" fill="#10608F"/>
<g opacity="0.63">
<g opacity="0.32">
<path d="M54.7642 410.208C53.3928 443.09 50.8024 476.369 47.054 509.069C42.7265 546.675 36.3573 585.378 20.3579 619.205L20.815 614.817C35.443 582.087 41.538 544.999 45.6521 508.886C49.4006 476.217 51.9909 442.999 53.3623 410.116C54.3375 387.169 54.7032 361.905 49.492 337.982L49.9491 333.533C56.166 358.827 55.8003 385.797 54.7642 410.208Z" fill="#001018"/>
<path d="M41.2637 463.813C38.7648 481.184 35.2297 498.25 31.1765 514.524L32.3041 503.827C35.2906 490.784 37.9115 477.283 39.8619 463.6C43.2751 439.951 44.4636 417.217 43.5189 395.549L44.4027 386.833C46.1702 411.122 45.1036 436.873 41.2637 463.813Z" fill="#001018"/>
</g>
<g opacity="0.48">
<path d="M102.03 51.5866C101.695 47.8077 100.872 44.5164 99.3176 42.2003C97.7024 39.7013 96.2091 38.6347 94.7768 39.0004C91.3331 39.8537 90.236 48.9047 89.4437 58.0777L89.3523 58.8396C89.3523 59.4186 89.2608 59.9367 89.1999 60.3633C87.3104 78.8007 70.3369 460.065 69.4836 478.35L66.4056 543.75C65.6133 561.151 64.76 579.101 64.6076 596.898C64.5162 607.656 64.6685 619.054 67.6246 629.507C68.0817 631.122 68.7522 632.889 70.1236 633.377C70.3674 633.468 70.6721 633.529 70.9159 633.529C71.2816 633.529 71.6778 633.407 72.0435 633.225C73.6587 632.219 74.5424 629.08 74.8472 626.703C78.3213 595.893 79.6318 564.321 80.8812 533.785L100.628 82.7321C100.719 80.416 100.994 77.4293 101.298 74.2599C101.999 66.9154 102.792 58.4435 102.06 51.5561L102.03 51.5866ZM100.019 74.1685C99.7442 77.3684 99.4395 80.355 99.3481 82.7321L79.6013 533.754C78.3823 564.26 77.0719 595.801 73.5672 626.581C73.3234 628.836 72.4701 631.487 71.373 632.188C71.0988 632.371 70.8245 632.371 70.5197 632.28C69.636 631.945 69.0874 630.36 68.7827 629.202C65.8571 618.932 65.7352 607.595 65.8266 596.929C65.979 579.192 66.8323 561.212 67.6246 543.842L70.7026 478.381C71.5559 460.187 88.5294 78.8921 90.4189 60.5462C90.4798 59.9062 90.5713 59.1139 90.6322 58.2301C90.6322 58.1387 90.6322 58.0473 90.6322 57.9559C91.0893 52.6532 92.1864 40.9508 94.9901 40.2499C95.813 40.0061 96.971 40.9812 98.2205 42.9316C99.6833 45.1563 100.445 48.4172 100.78 52.1961C101.42 58.992 100.598 67.464 99.9576 74.2599L100.019 74.1685Z" fill="#001018"/>
<path d="M70.4933 -6.41957C69.9447 11.5911 60.0665 337.586 59.7313 355.231C59.3046 376.594 58.8475 398.719 58.1466 420.417C53.941 547.529 39.9226 675.158 16.3654 800.167H14.9026C38.4598 675.128 52.5087 547.468 56.7143 420.387C57.3847 398.689 57.8418 376.564 58.299 355.201C58.6342 338.196 68.5124 12.8406 69 -4.49963C69.4571 -5.17008 69.9447 -5.77954 70.4933 -6.44998V-6.41957Z" fill="#001018"/>
<path d="M42.9095 640.172C36.0221 692.589 28.9214 746.743 24.1064 800.196H22.6741C27.4586 746.682 34.5898 692.467 41.4771 639.989C61.0888 490.906 69.5023 352.557 63.5 202.5C63.9267 201.921 63.5429 191.549 64 191C70.384 341.663 62.5827 490.525 42.9095 640.202V640.172Z" fill="#001018"/>
<path d="M68.2642 408.349C67.8985 420.874 67.5328 433.765 67.0452 446.504C64.0891 524.55 57.1103 603.357 46.2003 680.672C45.6822 684.36 45.1337 688.017 44.6156 691.704C39.4958 727.421 34.2541 764.082 36.814 800.195H35.3817C32.8218 763.991 38.0635 727.238 43.1833 691.522C43.7318 687.834 44.2499 684.177 44.768 680.49C55.678 603.205 62.6873 524.459 65.6129 446.473C66.1005 433.765 66.4662 420.813 66.8319 408.349C67.6547 380.038 80.4277 64.7079 82.5 36.0004C83.5666 21.5858 84.7247 9.79197 86.2484 -0.843803C86.797 -1.54473 87.4065 -2.18471 87.955 -2.85516C86.3398 8.29868 85.0294 20.6715 83.9323 36.0919C81.8905 64.7993 69.087 380.099 68.2642 408.379V408.349Z" fill="#001018"/>
<path d="M84.7518 713.373C83.6243 742.019 82.4662 771.306 85.148 800.196H83.7157C81.0644 771.245 82.1919 741.958 83.3195 713.312L98.6484 321.525C99.4712 301.199 107.512 -0.0881977 106.598 -20.7502C107.055 -21.1769 107.543 -21.6035 108 -21.9996C109.006 -0.849991 100.934 300.863 100.081 321.617L84.7518 713.403V713.373Z" fill="#001018"/>
<path d="M113.871 -34.6577C114.207 -13.7823 105.566 295.317 104.256 315.887L103.92 321.586C94.8692 464.057 93.8331 608.356 100.873 751.162L100.538 772.343C92.3398 622.619 93.0103 471.036 102.518 321.495L102.854 315.796C104.164 295.622 112.774 -13.0509 112.5 -33.4996C112.957 -33.9263 113.445 -34.3225 113.902 -34.6577H113.871Z" fill="#001018"/>
</g>
</g>
<path d="M314.985 264.604H17.0002C21.2363 261.039 25.8685 258.022 30.9578 255.888C43.5135 250.586 59.1471 251.165 69.6915 259.789C77.8588 228.126 108.181 203.532 140.851 202.07C173.52 200.607 205.915 222.366 216.886 253.207C234.317 242.693 255.802 239.127 275.672 243.424C290.422 246.624 304.166 254.121 314.985 264.604Z" fill="white"/>
<g clip-path="url(#clip1_408_6468)">
<path d="M479.864 158.903H250C253.211 142.11 269.016 128.379 287.354 124.382C305.691 120.321 325.67 125.317 340.583 135.728C340.583 135.728 340.619 135.76 340.69 135.793C361.311 99.5633 402.303 76.9684 445.686 78.0321C496.097 79.2569 540.978 112.263 553.929 158.935L554 159.032" fill="white"/>
</g>
<path d="M579.939 656.569V800.197H0.12207V687.44C18.5899 675.707 44.9203 676.499 61.8034 690.762C73.2316 668.423 102.975 660.378 127.172 666.991C151.4 673.635 170.782 691.615 187.147 710.631C201.379 699.965 220.609 696.339 237.736 701.093C254.832 705.877 269.46 718.86 276.165 735.316C296.918 712.216 336.688 709.778 360.093 730.196C369.083 712.856 382.888 697.222 401.051 690C419.214 682.808 441.948 685.52 455.449 699.691C481.2 659.951 535.263 641.423 580 656.599L579.939 656.569Z" fill="#75B8D8"/>
<path d="M256.69 455.463C251.479 450.953 247.944 443.67 246.938 435.045C245.872 425.933 247.274 416.212 251.174 406.094C258.58 386.834 273.482 370.682 292.072 361.783L292.712 363.155C274.457 371.901 259.829 387.748 252.576 406.642C248.797 416.516 247.395 426.025 248.432 434.862C249.529 444.035 253.521 451.593 259.403 455.646C268.058 461.589 279.76 459.577 287.501 454.976C296.765 449.46 302.982 440.165 307.37 432.668L308.681 433.43C304.201 441.079 297.832 450.557 288.293 456.256C280.126 461.132 267.783 463.204 258.549 456.865C257.909 456.439 257.3 455.951 256.69 455.433V455.463Z" fill="#001018"/>
<path d="M252.394 458.907C243.434 451.166 238.588 438.092 239.807 424.744C240.813 413.529 245.872 401.766 254.435 390.704C264.157 378.178 276.895 368.061 291.31 361.448L291.95 362.819C277.779 369.341 265.224 379.275 255.654 391.618C247.274 402.436 242.306 413.956 241.331 424.866C240.173 437.727 244.805 450.313 253.399 457.749H253.43C260.012 463.447 269.094 466.221 277.718 465.215C286.373 464.209 294.51 459.364 299.538 452.294C302.037 448.789 303.805 444.675 305.359 441.079C310.387 429.468 315.324 417.613 320.048 405.819L321.45 406.398C316.726 418.192 311.789 430.077 306.761 441.688C305.176 445.376 303.348 449.52 300.788 453.177C295.516 460.613 286.983 465.672 277.901 466.739C268.881 467.805 259.372 464.88 252.455 458.937H252.424L252.394 458.907Z" fill="#001018"/>
<path d="M570.278 407.953L546.416 482.525L544.832 487.523L534.623 482.799L535.537 479.843L557.723 407.648L558.545 404.935L569.669 405.636C569.821 406.246 569.974 406.855 570.126 407.465C570.187 407.648 570.248 407.8 570.278 407.983V407.953Z" fill="#001018"/>
<path d="M314.806 410.909L323.4 387.626L331.994 390.094L322.151 414.81L314.806 410.909Z" fill="#001018"/>
<path d="M327.697 409.72L300.239 488.163L293.718 506.783L288.841 520.71L282.137 539.818L243.525 650.076C242.52 652.88 239.929 654.709 237.065 654.8C236.577 654.8 236.059 654.8 235.541 654.678C231.305 653.855 228.775 649.497 230.177 645.414L272.842 523.636L279.638 504.162L284.636 489.9L291.219 471.127L313.648 407.099L327.697 409.751V409.72Z" fill="white"/>
<path d="M478.671 630.938C478.671 630.938 478.488 630.938 478.427 630.938C478.335 630.938 478.274 630.938 478.213 630.938L478.092 631.212L478.427 631.121C478.427 631.121 478.61 631.121 478.671 631.06C478.731 631.06 478.762 631.06 478.823 630.999C478.762 630.999 478.701 630.999 478.64 630.999L478.671 630.938ZM465.902 620.455L450.451 601.103L449.293 599.64L441.186 589.462L439.754 587.694L438.23 585.774L431.709 577.607C432.227 589.675 432.775 601.743 433.324 613.781L440.607 622.649L440.729 622.801L445.057 628.043L456.911 642.458L458.618 644.591L458.679 644.652L458.984 644.835L469.772 650.991C469.711 650.777 469.68 650.503 469.65 650.259L461.025 642.122C461.422 641.574 461.879 641.056 462.336 640.568C462.549 640.324 462.793 640.111 463.037 639.867C464.5 638.374 466.084 637.064 467.791 635.936C467.608 634.808 467.486 633.681 467.364 632.523C467.852 632.218 468.34 631.913 468.858 631.639C470.107 630.938 471.417 630.298 472.758 629.75C472.88 629.689 472.972 629.628 473.155 629.597L467.76 622.832L465.841 620.424L465.902 620.455ZM462.427 503.339L464.926 504.345L465.871 504.711L467.486 505.381L475.257 508.429C474.861 505.991 474.526 503.614 474.16 501.176C473.977 499.865 473.795 498.524 473.612 497.214C473.307 494.898 472.972 492.551 472.697 490.235C472.332 487.492 472.027 484.78 471.692 482.068L465.871 479.721L465.627 479.965C465.109 480.422 464.622 480.91 464.104 481.336C464.378 485.298 464.683 489.29 464.957 493.252C465.201 496.696 465.505 500.17 465.749 503.614C465.475 503.857 465.17 504.071 464.896 504.284L462.397 503.309L462.427 503.339ZM530.326 485.42L529.869 486.791L524.17 503.156L501.618 494.075L489.337 489.107L484.461 487.127L473.398 482.708L471.753 482.037L465.932 479.691L465.658 479.569L464.012 478.898L459.685 477.161L458.039 476.491L455.113 475.333L454.077 474.937L452.432 474.266L447.891 472.438L447.769 472.377L446.367 471.828L433.598 466.647L432.196 466.068L429.149 464.849L427.381 464.148L425.796 463.478L421.621 461.832L420.006 461.162L417.629 460.187L416.044 459.547L406.993 455.89L328.398 424.257L324.711 422.794H324.619L323.461 422.245L319.164 420.539L312.826 440.835L306.944 459.638L309.382 462.564L309.9 463.204L321.633 477.557L350.401 512.543L409.096 584.007L416.471 592.966L417.964 594.764V594.856L425.614 604.15L427.29 606.192L431.77 611.647L433.446 613.689L440.729 622.557L440.851 622.71L445.179 627.951L457.033 642.366L458.74 644.499L458.801 644.56L459.045 644.835L464.195 651.112L464.256 651.173L470.107 658.213L471.082 659.402L472.515 661.23C472.697 661.443 472.819 661.596 473.002 661.779C473.459 662.236 473.977 662.602 474.526 662.937C476.537 664.125 478.853 664.308 480.987 663.546C481.048 663.546 481.078 663.546 481.139 663.485C481.657 663.333 482.145 663.059 482.602 662.723C482.602 662.723 482.663 662.723 482.693 662.723C482.785 662.723 482.876 662.632 482.907 662.571C483.089 662.419 483.211 662.327 483.364 662.144C483.699 661.901 484.034 661.565 484.308 661.2C484.522 660.956 484.735 660.651 484.918 660.346C484.979 660.164 485.07 660.103 485.131 659.92C485.131 659.859 485.223 659.798 485.223 659.706C485.345 659.493 485.436 659.341 485.497 659.097L486.594 656.263L487.935 652.758L490.403 646.297L495.401 633.224L496.102 631.334L497.199 628.47L502.38 614.908L514.601 582.94L520.787 566.727L534.866 529.944L541.784 511.811L549.555 491.545L550.134 489.961L530.356 485.389L530.326 485.42ZM502.35 560.663L498.022 573.249L496.895 576.51L495.005 582.026L494.213 584.372L479.768 626.489L479.31 627.799L478.579 629.902L478.366 630.481L478.213 630.877L478.092 631.151L477.177 633.803L476.964 634.382L475.166 632.096L473.398 629.902L473.185 629.628L467.791 622.862L465.871 620.455L450.42 601.103L449.262 599.64L441.156 589.462L439.724 587.694L438.2 585.774L431.678 577.607L430.032 575.535L425.766 570.201L424.09 568.099L418.178 560.663L416.593 558.712L408.334 548.381L366.858 496.452L330.775 451.258L407.146 481.458H407.237L412.906 483.774H413.027L416.349 485.115L417.934 485.755L420.89 486.913L422.475 487.584L425.644 488.833L426.558 489.199L428.143 489.839L433.11 491.789L434.512 492.368L439.571 494.38L445.879 496.879L447.403 497.488L448.805 498.067L448.957 498.128L454.108 500.17L455.723 500.84L460.721 502.821L462.366 503.492L464.865 504.497L465.81 504.863L467.425 505.533L475.196 508.581L476.873 509.251L491.927 515.194L494.365 516.169L514.905 524.276L502.319 560.846L502.35 560.663ZM474.16 501.176C473.977 499.865 473.795 498.524 473.612 497.214C473.307 494.898 472.972 492.551 472.697 490.235C472.332 487.492 472.027 484.78 471.692 482.068L465.871 479.721L465.627 479.965C465.109 480.422 464.622 480.91 464.104 481.336C464.378 485.298 464.683 489.29 464.957 493.252C465.201 496.696 465.505 500.17 465.749 503.614C465.475 503.857 465.17 504.071 464.896 504.284L462.397 503.309L464.896 504.314L465.841 504.68L467.456 505.351L475.227 508.398C474.831 505.96 474.495 503.583 474.13 501.145L474.16 501.176ZM472.819 629.78C472.819 629.78 473.033 629.658 473.215 629.628L467.821 622.862L465.902 620.455L450.451 601.103L449.293 599.64L441.186 589.462L439.754 587.694L438.23 585.774L431.709 577.607C432.227 589.675 432.775 601.743 433.324 613.781L440.607 622.649L440.729 622.801L445.057 628.043L456.911 642.458L458.618 644.591L458.679 644.652L458.984 644.835L469.772 650.991C469.711 650.777 469.68 650.503 469.65 650.259L461.025 642.122C461.422 641.574 461.879 641.056 462.336 640.568C462.549 640.324 462.793 640.111 463.037 639.867C464.5 638.374 466.084 637.064 467.791 635.936C467.608 634.808 467.486 633.681 467.364 632.523C467.852 632.218 468.34 631.913 468.858 631.639C470.107 630.938 471.417 630.298 472.758 629.75L472.819 629.78ZM478.671 630.938C478.671 630.938 478.488 630.938 478.427 630.938C478.335 630.938 478.274 630.938 478.213 630.938L478.092 631.212L478.427 631.121C478.427 631.121 478.61 631.121 478.671 631.06C478.731 631.06 478.762 631.06 478.823 630.999C478.762 630.999 478.701 630.999 478.64 630.999L478.671 630.938ZM478.671 630.938C478.671 630.938 478.488 630.938 478.427 630.938C478.335 630.938 478.274 630.938 478.213 630.938L478.092 631.212L478.427 631.121C478.427 631.121 478.61 631.121 478.671 631.06C478.731 631.06 478.762 631.06 478.823 630.999C478.762 630.999 478.701 630.999 478.64 630.999L478.671 630.938Z" fill="white"/>
<path d="M328.215 424.318L321.419 477.588L309.686 463.265L324.528 422.855L328.215 424.318Z" fill="#001018"/>
<path d="M547.361 650.046L579.939 646.663V663.821L551.445 667.264L538.95 668.758L522.25 670.769L519.141 671.135L500.978 673.329L498.967 673.573L495.036 674.06L488.544 674.822L485.527 675.188L482.967 675.523L482.206 671.165L481.566 667.417L481.261 665.832L480.895 663.607L480.773 662.846L480.347 660.499L480.316 660.194L479.768 656.994L480.286 656.933L481.2 656.872L484.948 656.446L486.533 656.324L487.996 656.141L492.628 655.684L497.199 655.196L501.831 654.709L518.41 653.002L521.427 652.697L535.08 651.295L547.361 650.046Z" fill="white"/>
<path d="M579.939 544.603V567.123L571.101 559.87L566.317 555.878L561.593 552.008L546.843 539.848L546.813 539.818L535.08 530.188L534.836 529.974L527.888 524.245L537.213 507.941L541.754 511.842L542.059 512.116L547.849 517.084L558.881 526.561L573.478 539.056L579.36 544.115L579.939 544.603Z" fill="white"/>
<path d="M579.939 510.531V543.627C579.725 543.81 579.543 543.932 579.36 544.115C571.924 550.118 567.383 554.781 566.316 555.878C566.164 556.061 566.103 556.122 566.103 556.122L564 554.111L560.709 553.105L552.42 550.606C547.635 549.174 545.35 544.145 546.843 539.818C547.178 538.782 547.757 537.776 548.549 536.892C551.292 533.845 554.705 530.279 558.88 526.5C564.549 521.35 571.558 515.804 579.939 510.47V510.531Z" fill="#FA818F"/>
<path d="M547.879 517.084C547.513 524.398 547.147 532.504 546.812 539.787L535.11 530.157L542.089 512.116L547.879 517.084Z" fill="#001018"/>
<path d="M333.823 392.075L300.087 378.788L306.213 367.482L338.516 380.16C341.868 381.47 343.484 385.34 342.051 388.662C340.68 391.831 337.023 393.355 333.823 392.106V392.075Z" fill="#001018"/>
<path d="M523.469 485.268L526.456 477.619L559.247 485.664L557.327 493.466L523.469 485.268Z" fill="#E4F2F7"/>
<path d="M612.741 381.666C608.961 377.037 602.701 375.173 596.795 376.338C585.19 378.667 561.685 383.035 547.865 383.035C529.025 383.035 506.642 380.007 510.421 385.83C514.201 391.624 538.445 414.161 561.773 411.832C582.178 409.794 625.321 397.098 612.741 381.666Z" fill="#001018"/>
<path d="M257.422 335.666C257.422 335.666 252.668 340.451 257.453 345.479C262.268 350.507 286.617 360.595 287.562 366.507C288.507 372.419 289.878 389.089 297.344 382.232C302.86 377.142 312.307 364.191 305.146 358.217C298.076 352.336 261.871 329.327 257.422 335.666Z" fill="white"/>
<path d="M288.812 520.741L283 537.5C279.556 532.289 275.555 529.243 272.812 523.636L279.608 504.162C282.412 509.8 285.49 515.347 288.812 520.741Z" fill="#FA818F"/>
<path d="M300.239 488.163L293.718 506.783C290.304 501.359 287.287 495.721 284.636 489.869L291.219 471.097C293.992 476.918 296.978 482.616 300.239 488.163Z" fill="#FA818F"/>
<path d="M447.8 472.438C444.326 475.516 440.729 478.441 436.981 481.215C433.355 483.927 429.576 486.456 425.644 488.803L407.116 481.458C414.734 476.369 422.018 470.823 429.027 464.91L447.8 472.468V472.438Z" fill="#FA818F"/>
<path d="M484.4 487.157C478.244 493.283 471.844 499.073 464.927 504.315L445.941 496.787C452.919 491.485 459.563 485.725 465.902 479.721L484.4 487.157Z" fill="#FA818F"/>
<path d="M135.369 567.367L126.745 564.777C119.37 562.583 116.871 553.379 122.143 547.772C136.923 532.047 167.917 506.478 217.042 500.749C273.878 494.105 322.029 529.152 339.887 544.298C344.123 547.894 344.793 554.202 341.35 558.59C337.845 563.07 331.384 563.893 326.874 560.388C309.26 546.797 265.406 517.053 225.453 522.691C173.981 529.974 137.472 569.348 137.472 569.348L135.339 567.337L135.369 567.367Z" fill="#FA818F"/>
<path d="M312.307 549.997C304.323 544.724 294.693 538.995 284.118 534.15L282.686 538.172C284.849 539.056 287.013 540.062 289.055 541.128C290.335 541.738 291.493 542.347 292.682 543.048C299.935 546.919 306.791 551.642 313.161 557.158C314.227 558.072 315.294 559.048 316.33 560.023C315.111 556.64 313.74 553.288 312.246 549.997H312.307ZM365.821 641.178C364.968 611.922 354.271 585.226 337.023 564.137C336.505 563.497 336.017 562.918 335.468 562.309C332.848 559.2 330.105 556.213 327.179 553.41C320.566 546.888 313.222 541.098 305.268 536.161C299.386 532.504 293.2 529.304 286.769 526.592C282.442 524.733 278.023 523.179 273.452 521.868C260.835 518.15 247.487 516.383 233.59 516.809C193.424 518.028 158.104 537.715 135.461 567.398C118.243 590.01 108.338 618.504 109.253 649.101C109.435 654.373 109.893 659.585 110.685 664.735C112.391 676.133 115.622 687.134 120.254 697.496C127.08 712.824 136.954 726.843 149.601 738.698C150.973 739.978 152.405 741.258 153.807 742.477C154.721 743.269 155.666 744.061 156.611 744.823C158.378 746.286 160.146 747.657 161.974 748.968C184.952 765.79 212.624 774.384 241.484 773.5C246.238 773.348 250.9 772.952 255.532 772.312C284.423 768.289 310.845 754.667 331.08 733.121C335.042 728.885 338.668 724.466 341.99 719.834C358.325 697.069 366.736 669.702 365.821 641.239V641.178ZM345.647 687.378C345.19 688.719 344.641 689.938 344.062 691.187C340.192 700.299 335.072 708.863 328.825 716.786C326.722 719.499 324.467 722.119 322.059 724.679C316.818 730.256 311.088 735.285 304.993 739.642C303.866 740.435 302.738 741.227 301.58 741.959C285.215 752.838 266.351 759.39 246.39 760.853C245.598 760.944 244.805 760.975 243.982 761.036C243.007 761.127 242.032 761.158 241.057 761.188C240.661 761.188 240.265 761.188 239.868 761.188C221.98 761.584 204.578 757.927 188.762 750.552C187.512 750.004 186.293 749.425 185.074 748.754C181.387 746.896 177.821 744.854 174.347 742.568C168.618 738.82 163.163 734.553 158.043 729.708C153.167 725.136 148.718 720.23 144.847 714.988C143.994 713.861 143.202 712.794 142.44 711.636C132.81 698.014 126.349 682.532 123.423 666.045C123.21 664.826 122.997 663.607 122.814 662.388C122.57 661.047 122.387 659.707 122.265 658.305C121.869 655.135 121.625 651.935 121.564 648.705C121.107 633.65 123.454 618.931 128.482 605.217C128.97 603.907 129.427 602.657 129.976 601.377C135.309 588.304 143.049 576.175 152.984 565.6C158.165 560.175 163.742 555.208 169.715 550.911C170.812 550.088 171.909 549.326 173.098 548.534C190.621 536.77 211.161 530.036 232.798 529.182C233.164 529.121 233.59 529.091 233.956 529.091C234.962 529.03 235.907 529.03 236.912 529.091C248.036 528.999 258.976 530.493 269.368 533.479C273.208 534.546 276.865 535.765 280.492 537.258C281.223 537.502 282.015 537.868 282.686 538.172C284.849 539.056 287.013 540.062 289.055 541.128C290.335 541.738 291.493 542.347 292.682 543.048C299.935 546.919 306.791 551.642 313.161 557.158C314.227 558.072 315.294 559.048 316.33 560.023C316.543 560.206 316.726 560.389 316.94 560.571C318.738 562.278 320.505 564.015 322.181 565.813C325.93 569.805 329.343 574.011 332.451 578.399C333.244 579.527 334.036 580.654 334.737 581.812C338.028 586.749 340.862 591.961 343.27 597.385C348.115 608.082 351.285 619.571 352.656 631.426C352.839 632.797 352.931 634.138 353.083 635.509C353.235 637.49 353.327 639.532 353.388 641.513C353.875 657.451 351.193 672.933 345.525 687.317L345.647 687.378ZM312.307 550.027C304.323 544.755 294.693 539.026 284.118 534.18L282.686 538.203C284.849 539.087 287.013 540.092 289.055 541.159C290.335 541.768 291.493 542.378 292.682 543.079C299.935 546.949 306.791 551.673 313.161 557.189C314.227 558.103 315.294 559.078 316.33 560.053C315.111 556.671 313.74 553.318 312.246 550.027H312.307Z" fill="#001018"/>
<path d="M276.073 641.33C276.713 662.175 260.347 679.607 239.503 680.247C218.658 680.887 201.226 664.522 200.586 643.677C199.946 622.832 216.311 605.4 237.156 604.76C258.001 604.12 275.433 620.485 276.073 641.33Z" fill="#001018"/>
<path d="M236.836 526.358L232.724 526.485L240.165 767.305L244.278 767.178L236.836 526.358Z" fill="#001018"/>
<path d="M290.554 538.291L182.635 753.705L186.313 755.548L294.232 540.134L290.554 538.291Z" fill="#001018"/>
<path d="M335.927 576.122L138.54 714.282L140.899 717.653L338.286 579.492L335.927 576.122Z" fill="#001018"/>
<path d="M357.82 630.935L118.491 658.711L118.965 662.797L358.294 635.021L357.82 630.935Z" fill="#001018"/>
<path d="M127.322 600.323L125.796 604.144L349.564 693.464L351.089 689.643L127.322 600.323Z" fill="#001018"/>
<path d="M171.672 546.573L168.287 548.911L305.204 747.162L308.589 744.824L171.672 546.573Z" fill="#001018"/>
<path d="M573.478 539.056C571.741 540.671 570.065 542.378 568.45 544.115C565.981 546.675 563.756 549.326 561.593 552.008C561.349 552.404 560.983 552.8 560.709 553.136C542.302 576.723 532.763 605.735 533.708 635.967C533.891 641.178 534.379 646.237 535.14 651.265C535.14 651.509 535.201 651.722 535.262 651.966C536.116 657.726 537.365 663.272 539.011 668.727C540.138 672.476 541.388 676.133 542.851 679.668C550.53 698.989 562.842 715.903 578.293 729.251C578.872 729.738 579.421 730.226 580 730.683V713.983C576.19 710.173 572.655 706.09 569.425 701.793C568.572 700.726 567.779 699.598 566.987 698.501C562.263 691.797 558.271 684.605 555.071 676.925C553.73 673.786 552.572 670.556 551.506 667.234C549.799 662.084 548.519 656.751 547.635 651.265C547.574 650.869 547.483 650.442 547.422 650.016C547.33 649.802 547.3 649.559 547.3 649.315C547.056 647.974 546.904 646.633 546.751 645.231C546.386 642.062 546.081 638.831 546.02 635.601C545.563 620.546 547.97 605.827 553.029 592.113C553.425 590.803 553.944 589.523 554.462 588.243C558.606 578.095 564.214 568.526 571.162 559.81C573.143 557.311 575.246 554.842 577.47 552.465C578.293 551.612 579.116 550.728 579.969 549.905V533.266C577.775 535.125 575.611 537.045 573.508 539.026L573.478 539.056Z" fill="#001018"/>
<path d="M566.926 698.501L579.938 689.389V694.387L569.364 701.793L565.432 704.566L563.086 701.183L566.926 698.501Z" fill="#001018"/>
<path d="M546.721 645.231L579.939 641.361V645.505L547.27 649.315L543.491 649.741L543.003 645.658L546.721 645.231Z" fill="#001018"/>
<path d="M554.4 588.273L579.938 598.452V602.871L552.968 592.143L550.225 591.077L551.78 587.207L554.4 588.273Z" fill="#001018"/>
<path d="M504.117 662.845C504.422 672.475 496.864 680.521 487.234 680.825C477.604 681.13 469.559 673.573 469.254 663.942C468.949 654.312 476.507 646.267 486.137 645.962C495.767 645.657 503.812 653.215 504.117 662.845Z" fill="#001018"/>
<path d="M473.429 629.902L473.215 629.628C473.032 629.628 472.941 629.719 472.819 629.78C471.478 630.329 470.168 630.938 468.918 631.669C468.4 631.944 467.913 632.249 467.425 632.553C467.547 633.681 467.669 634.808 467.852 635.966C468.339 635.631 468.827 635.296 469.315 634.991C471.173 633.833 473.154 632.889 475.196 632.127L473.429 629.932V629.902ZM521.884 654.282C521.762 653.764 521.64 653.246 521.457 652.728C519.69 646.633 516.337 641.3 511.675 636.881C509.328 634.717 506.799 632.858 504.086 631.365C502.563 630.542 501.009 629.841 499.393 629.292C498.692 629.018 497.931 628.774 497.199 628.561C493.481 627.433 489.611 626.946 485.619 627.037C483.668 627.098 481.748 627.281 479.92 627.708C479.707 627.708 479.524 627.769 479.31 627.83C478.975 627.891 478.64 627.952 478.335 628.043C478.213 628.043 478.122 628.043 478.061 628.134C477.512 628.256 476.994 628.348 476.476 628.5C475.349 628.835 474.282 629.201 473.215 629.658C473.032 629.658 472.941 629.75 472.819 629.811C471.478 630.359 470.168 630.969 468.918 631.7C468.4 631.974 467.913 632.279 467.425 632.584C464.804 634.199 462.366 636.21 460.203 638.557C459.014 639.776 457.917 641.117 456.942 642.488C456.728 642.762 456.576 643.067 456.393 643.372C455.784 644.195 455.266 645.048 454.808 645.932C451.7 651.57 450.115 657.939 450.329 664.521C450.633 674.273 454.717 683.264 461.818 689.907C461.97 690.09 462.122 690.242 462.305 690.395L462.976 691.004C466.938 694.417 471.509 696.916 476.446 698.349C476.994 698.532 477.543 698.653 478.091 698.806C480.56 699.415 483.028 699.72 485.619 699.781C486.137 699.781 486.655 699.781 487.203 699.781C487.386 699.781 487.569 699.781 487.782 699.781C487.904 699.781 487.996 699.781 488.118 699.781C488.666 699.781 489.215 699.781 489.702 699.69C497.321 699.05 504.422 696.124 510.181 691.187C511.218 690.334 512.193 689.389 513.138 688.383C517.831 683.416 521 677.382 522.219 670.86C522.89 668.118 523.103 665.253 522.981 662.358C522.92 659.615 522.554 656.933 521.823 654.373L521.884 654.282ZM519.172 671.196C517.892 676.468 515.332 681.405 511.644 685.549C511.4 685.763 511.218 686.006 510.974 686.25C510.608 686.646 510.242 687.012 509.846 687.378C509.755 687.469 509.633 687.591 509.542 687.652C504.026 692.894 497.016 696.033 489.306 696.551H489.245C488.758 696.673 488.239 696.703 487.752 696.703H486.868C486.655 696.703 486.441 696.703 486.198 696.703C485.893 696.703 485.588 696.703 485.283 696.703C482.693 696.612 480.133 696.216 477.695 695.545C477.116 695.393 476.568 695.24 476.019 695.027C472.179 693.747 468.614 691.736 465.444 689.084C465.048 688.81 464.652 688.444 464.286 688.109C464.134 687.987 464.042 687.865 463.89 687.744C463.646 687.5 463.433 687.286 463.22 687.043C457.673 681.557 454.351 674.487 453.62 666.777C453.468 666.015 453.407 665.253 453.407 664.491C453.407 664.217 453.407 663.973 453.407 663.729C453.285 657.969 454.717 652.393 457.46 647.456C457.886 646.633 458.404 645.81 458.983 644.987C458.983 644.926 458.984 644.896 459.044 644.865C459.623 643.92 460.324 643.037 461.086 642.183C461.482 641.604 461.94 641.086 462.397 640.599C462.61 640.355 462.854 640.142 463.098 639.898C464.56 638.404 466.145 637.094 467.852 635.966C468.339 635.631 468.827 635.296 469.315 634.991C471.173 633.833 473.154 632.889 475.196 632.127C475.745 631.913 476.324 631.7 476.872 631.517C477.269 631.395 477.695 631.304 478.091 631.182L478.427 631.091C478.427 631.091 478.609 631.09 478.67 631.03C478.731 631.03 478.762 631.03 478.823 630.969C479.31 630.847 479.767 630.755 480.255 630.694C482.023 630.359 483.821 630.115 485.68 630.054C489.245 629.963 492.75 630.39 496.041 631.395C496.833 631.578 497.626 631.852 498.327 632.157C500.429 632.949 502.502 633.955 504.422 635.144C505.824 636.027 507.164 637.003 508.414 638.1L508.81 638.435L509.511 639.075C509.999 639.563 510.517 640.05 510.974 640.568C514.387 644.164 516.886 648.37 518.379 653.032C518.593 653.703 518.775 654.343 518.989 655.013C519.537 657.147 519.873 659.341 519.933 661.657C519.933 661.901 519.994 662.144 519.994 662.388C519.994 663.181 520.055 663.943 519.994 664.674C519.933 666.899 519.659 669.001 519.172 671.165V671.196ZM473.429 629.963L473.215 629.689C473.032 629.689 472.941 629.78 472.819 629.841C471.478 630.39 470.168 630.999 468.918 631.73C468.4 632.005 467.913 632.31 467.425 632.614C467.547 633.742 467.669 634.869 467.852 636.027C468.339 635.692 468.827 635.357 469.315 635.052C471.173 633.894 473.154 632.949 475.196 632.188L473.429 629.993V629.963Z" fill="#001018"/>
<path d="M487.197 630.134L484.151 630.228L486.249 698.125L489.295 698.031L487.197 630.134Z" fill="#001018"/>
<path d="M508.868 638.454L462.307 687.915L464.526 690.004L511.087 640.542L508.868 638.454Z" fill="#001018"/>
<path d="M520.664 661.528L452.769 663.686L452.866 666.732L520.761 664.574L520.664 661.528Z" fill="#001018"/>
<path d="M463.029 639.712L460.942 641.933L510.435 688.459L512.523 686.239L463.029 639.712Z" fill="#001018"/>
<path d="M428.329 627.308L426.819 629.955L488.578 665.181L490.087 662.534L428.329 627.308Z" fill="#001018"/>
<path d="M447.439 621.281L406.973 630.52L408.323 636.432L448.788 627.194L447.439 621.281Z" fill="#001018"/>
<path d="M316.635 405.453L325.046 408.196C327.423 408.958 328.673 411.579 327.789 413.895L317.001 442.785L300.971 435.867L311.18 408.105C312.003 405.88 314.411 404.722 316.666 405.453H316.635Z" fill="#B7DBEB"/>
<path d="M262.603 800.198H0.12207V665.682C10.9102 662.36 23.2526 663.183 33.8884 667.449C50.1315 674.032 62.7787 687.441 72.3783 702.16C88.3472 690.092 111.935 690.976 128.696 701.917C145.427 712.857 155.514 732.3 157.83 752.2C178.584 733.854 211.954 736.414 235.084 751.591C251.449 762.348 264.706 780.755 262.634 800.198H262.603Z" fill="#E4F2F7"/>
<path d="M579.939 674.58V800.198H377.92C390.446 762.653 433.293 734.586 469.833 760.459C470.808 732.27 489.215 706.457 513.443 691.951C533.312 680.035 556.626 675.038 579.909 674.55L579.939 674.58Z" fill="#E4F2F7"/>
</g>
<defs>
<clipPath id="clip0_408_6468">
<rect width="580" height="800" fill="white"/>
</clipPath>
<clipPath id="clip1_408_6468">
<rect width="304" height="81" fill="white" transform="translate(250 78)"/>
</clipPath>
</defs>
</svg>
