<svg width="311" height="301" viewBox="0 0 311 301" fill="none" xmlns="http://www.w3.org/2000/svg">
<rect y="0.5" width="311" height="300" rx="6" fill="#F7F8F9"/>
<path fill-rule="evenodd" clip-rule="evenodd" d="M129.25 129.482C129.26 128.047 130.42 126.886 131.854 126.875H179.146C180.584 126.875 181.75 128.043 181.75 129.482V171.518C181.74 172.953 180.58 174.114 179.146 174.125H131.854C130.416 174.124 129.25 172.957 129.25 171.518V129.482ZM176.5 132.125H134.5V168.875L158.892 144.478C159.917 143.454 161.578 143.454 162.604 144.478L176.5 158.401V132.125ZM139.75 142.625C139.75 145.524 142.1 147.875 145 147.875C147.899 147.875 150.25 145.524 150.25 142.625C150.25 139.725 147.899 137.375 145 137.375C142.1 137.375 139.75 139.725 139.75 142.625Z" fill="#687787"/>
</svg>
