<svg viewBox="0 0 160 40" fill="none" xmlns="http://www.w3.org/2000/svg">
<path d="M0 40H160V0H0V40Z" fill="#0082C3"/>
<path d="M51.052 30.6008C50.6392 30.6008 50.216 30.58 49.7952 30.5392C47.3879 30.2924 45.1273 29.2649 43.3584 27.6136C41.2515 25.596 40.0934 22.7833 40.1688 19.8672C40.2554 17.5603 41.0503 15.336 42.4456 13.4968C43.3374 12.3202 44.48 11.3569 45.7904 10.6768C47.4197 9.86136 49.2149 9.43213 51.0368 9.42239C51.1168 9.42239 51.2032 9.42239 51.2848 9.42239C54.5034 9.44546 57.5501 10.8782 59.6208 13.3424L59.6688 13.404L56.98 17.7128L56.8008 17.5L56.6752 17.3608L56.4304 17.1032L56.2304 16.9056C55.3 16.0112 53.396 14.5096 51.0968 14.5096H50.9904C48.0126 14.561 45.624 16.9866 45.6184 19.9648C45.6184 22.4448 47.1096 25.3576 51.3112 25.4224H51.3728C53.816 25.4224 55.4128 23.628 56.1464 22.5584L56.3064 22.3184C56.3952 22.18 56.6016 21.8384 56.9392 21.2784L63.74 9.82959H69.2424V30.1416H64.1784V27.0944L60.144 27.0768H59.6056L59.4584 27.0832L59.4328 27.088L59.324 27.208L59.1944 27.3416L59.0112 27.5192L58.8576 27.6608L58.68 27.8208L58.48 27.9888C56.3774 29.6866 53.7545 30.6089 51.052 30.6008ZM64.2824 18.2448L61.568 22.8448H64.2824V18.2448ZM121.415 30.5912C118.535 30.6576 115.759 29.5164 113.758 27.444V30.1552H102.39V9.83279H107.621V25.664H112.347C111.26 23.8983 110.703 21.8578 110.741 19.7848C110.737 18.4078 111.012 17.0442 111.55 15.7768C112.096 14.5043 112.892 13.3544 113.89 12.3952C115.904 10.422 118.627 9.34391 121.446 9.40479C124.215 9.40486 126.874 10.4872 128.857 12.4208C130.108 13.6156 131.042 15.1022 131.577 16.7472V9.82879H136.33L144.233 21.1168V9.82879H149.502V30.1552H144.873L136.846 18.8312V30.1552H131.58V23.188C131.095 24.7758 130.231 26.2218 129.062 27.4008C127.054 29.4604 124.292 30.6124 121.415 30.5912ZM121.474 14.4616C120.014 14.4494 118.608 15.0131 117.56 16.0304C116.532 17.031 115.955 18.4062 115.96 19.8408C115.954 21.3569 116.548 22.8138 117.614 23.892C118.614 24.9197 119.98 25.5079 121.414 25.5272C122.85 25.5376 124.229 24.9621 125.232 23.9336C126.275 22.829 126.844 21.3597 126.816 19.8408C126.822 16.8822 124.433 14.4757 121.474 14.4616ZM90.1104 30.156H84.8544V9.82719H90.1104V17.5456H95.5232V9.82719H100.783V30.1544H95.5232V22.3776H90.1104V30.156ZM79.6848 30.156H74.4304V14.68H70.3408V9.82079H83.7696V14.68H79.6896V30.1544L79.6848 30.156ZM17.6984 30.156H9.63037V9.82959H16.9808C20.352 9.82959 22.7488 10.2296 25.0208 12.2576C26.6722 13.7599 27.7327 15.8026 28.0112 18.0176V9.82959H39.7104V14.3008L33.2736 14.308V17.6288L38.8472 17.624V21.9952L33.2736 22.0008V25.6848H39.7104V30.1416H28.0104V22.0384C27.6865 24.1879 26.6403 26.163 25.044 27.6384C22.7504 29.7544 20.692 30.1552 17.7008 30.1552L17.6984 30.156ZM14.892 14.2V25.6912H17.0048C19.0472 25.6912 20.5104 25.2384 21.4784 24.3072C22.4464 23.376 22.9328 21.9312 22.9328 19.9232C22.9328 16.2328 20.8192 14.2 16.9808 14.2H14.892Z" fill="#FEFEFE"/>
</svg>
