<svg width="580" height="800" viewBox="0 0 580 800" fill="none" xmlns="http://www.w3.org/2000/svg">
<g clip-path="url(#clip0_408_6327)">
<rect width="580" height="803" fill="#FFE5BA"/>
<path d="M377 362.628L669.127 365.29C668.224 358.505 667.029 351.807 665.631 345.198C653.714 343.121 640.864 348.122 633.434 357.686C626.267 337.564 611.698 320.221 593.109 309.751C581.949 303.463 568.983 299.632 556.367 301.679C547.83 303.054 539.905 307.061 532.854 312.003C519.13 321.625 508.204 335.225 501.648 350.667C485.244 332.944 460.39 323.468 436.41 325.778C412.401 328.059 389.82 342.098 377.029 362.599L377 362.628Z" fill="white"/>
<path d="M-34.0001 276.906H188.723C185.11 265.266 175.291 255.761 163.607 252.602C151.631 249.356 138.083 252.807 129.079 261.406C122.028 245.671 106.644 234.879 90.2107 229.849C77.9149 226.135 64.2788 225.316 52.5949 230.58C38.4926 236.926 29.5184 250.848 21.3601 264.008C13.7262 250.117 0.847641 239.588 -13.8374 233.475C-21.7043 247.28 -28.4933 261.786 -34.0001 276.877V276.906Z" fill="white"/>
<path d="M200 158.822H434.348C428.055 150.604 418.498 144.843 408.212 143.527C395.246 141.86 381.581 147.241 373.219 157.331C365.906 143.731 355.038 132.091 342.042 123.815C317.393 108.139 285.488 105.448 257.837 114.807C234.527 122.674 214.335 138.701 200.029 158.822H200Z" fill="white"/>
<path d="M6.10352e-05 496.955V803H580L580 528.336L509.78 462.006C507.42 459.783 504.535 458.409 501.505 457.911C498.009 457.297 494.308 457.911 491.045 459.725L447.951 483.97L429.012 494.615L411.006 504.764L401.391 510.174L370.797 471.949L368.728 469.376L363.221 462.503L358.88 457.092L334.521 426.618L332.394 423.956L322.517 411.585L310.017 395.968L303.432 387.75C302.849 387.048 302.267 386.404 301.567 385.79C300.897 385.176 300.169 384.62 299.411 384.152C298.217 383.421 296.905 382.836 295.565 382.485C294.108 381.988 292.564 381.783 291.02 381.783H250.112L205.765 338.411L192.799 325.718C190.002 322.969 186.477 321.507 182.864 321.244C182.164 321.185 181.494 321.185 180.795 321.244C180.562 321.244 180.387 321.244 180.154 321.332C175.667 321.741 171.296 324.11 168.499 328.234L161.594 338.441L99.8232 429.601L98.8908 429.338L60.5466 417.435C57.5164 416.499 54.4279 416.499 51.5433 417.288C47.6682 418.4 44.2591 420.944 42.103 424.629L0.0874634 496.926L6.10352e-05 496.955Z" fill="#1375AF"/>
<g opacity="0.34">
<path d="M49.3292 521.463L98.8037 429.338L60.4595 417.435C57.4292 416.499 54.3407 416.499 51.4562 417.289L49.3292 521.434V521.463Z" fill="#001018"/>
<path d="M209.931 386.492L181.931 452.091L262.086 381.813H250.111L192.77 325.748C189.419 322.472 185.048 321.01 180.794 321.244L209.99 386.492H209.931Z" fill="#001018"/>
<path d="M501.476 457.912L538.596 641.432L579.971 597.065V528.336L509.751 462.006C507.391 459.783 504.506 458.409 501.476 457.912Z" fill="#001018"/>
</g>
<path d="M6.10352e-05 596.161V802.347H580V658.309C577.407 658.894 574.843 659.713 572.366 660.737C561.877 665.153 553.019 673.488 548.62 684.104C546.93 673.459 540.141 665.036 531.079 659.567C519.162 652.314 503.253 650.237 489.85 654.858C467.677 662.55 452.38 682.788 442.415 704.284C441.774 705.63 441.162 707.004 440.58 708.379C440.055 706.975 439.443 705.63 438.715 704.372C435.219 698.026 429.449 693.142 422.719 690.1C421.466 689.486 420.155 688.989 418.814 688.55C417.969 688.257 417.125 687.994 416.25 687.789C415.901 687.702 415.551 687.585 415.172 687.555C414.648 687.409 414.123 687.321 413.599 687.205C411.006 686.707 408.296 686.444 405.645 686.444C405.353 686.444 405.062 686.444 404.77 686.444C403.051 686.444 401.274 686.649 399.584 686.912C397.224 687.292 394.922 687.848 392.679 688.608C392.475 688.608 392.329 688.696 392.125 688.784C378.897 693.258 367.767 703.495 359.987 715.281C356.432 720.721 353.431 726.511 350.838 732.507C350.488 733.326 350.139 734.145 349.76 734.993C349.235 736.309 348.682 737.654 348.157 739.029C345.331 746.34 342.884 753.915 340.523 761.402C335.308 743.24 312.377 734.905 294.312 740.169C276.918 745.229 263.719 759.355 253.637 774.504C253.2 775.119 252.821 775.733 252.413 776.347C251.714 774.212 251.015 772.048 250.316 769.913C248.509 764.531 246.615 759.15 244.517 753.886C238.195 738.005 230.007 723.06 217.187 712.093C212.554 708.116 207.105 704.928 201.278 702.676C194.023 699.81 186.156 698.406 178.639 698.757C177.765 698.757 176.92 698.845 176.075 698.962C166.255 699.927 157.136 703.963 150.638 711.713C150.58 706.799 150.172 701.828 149.356 696.944C149.123 695.306 148.802 693.668 148.424 692.059C148.191 690.86 147.899 689.661 147.608 688.491C145.714 681.209 142.975 674.278 139.275 668.019C134.409 659.742 127.911 652.665 119.607 647.664C98.3664 634.883 65.1794 642.926 58.1574 666.703C50.407 646.991 41.1415 627.279 25.9902 612.51C18.6477 605.344 9.64441 599.554 6.10352e-05 596.132V596.161Z" fill="#FFCC7A"/>
<path d="M234.234 595.435L248.068 552.796L257.112 555.708L242.933 599.304L234.234 595.435Z" fill="#001018"/>
<path d="M215.303 640.793L166.93 755.92L181.607 760.824L231.973 644.356L215.303 640.793Z" fill="#001018"/>
<path d="M389.859 677.724C401.356 696.763 410.285 713.007 409.059 715.765C405.801 722.929 298.155 747.064 296.852 740.551C295.549 734.039 355.561 697.491 355.561 697.491C355.561 697.491 353.032 694.886 348.855 690.481C348.127 689.676 347.322 688.833 346.441 687.914C340.386 681.478 331.802 672.284 322.489 661.902C297.044 633.438 266.195 596.163 266.195 582.754C266.195 559.922 355.561 515.598 355.561 515.598L399.248 483.609L436.459 549.502L345.789 608.843C345.789 608.843 356.328 624.627 368.782 644.088C375.489 654.546 382.77 666.078 389.284 676.804L389.859 677.724Z" fill="#BEDEEF"/>
<path d="M389.284 676.804L348.855 690.481C342.762 684.045 333.104 673.739 322.489 661.902L368.782 644.088C375.488 654.546 382.77 666.078 389.284 676.804Z" fill="#C77F67"/>
<path d="M409.058 715.765C405.801 722.929 298.155 747.064 296.852 740.551C295.549 734.039 355.561 697.491 355.561 697.491C355.561 697.491 353.032 694.886 348.855 690.481C348.127 689.676 347.322 688.834 346.44 687.914L389.859 677.724C401.356 696.764 410.285 713.007 409.058 715.765Z" fill="#001018"/>
<path d="M457.957 667.495L483.403 584.708L464.51 580.801L439.065 661.634L457.957 667.495Z" fill="#75B8D8"/>
<path d="M434.811 555.363C434.811 555.363 461.866 558.964 486.66 560.918C502.257 562.144 517.203 561.301 527.435 562.489C536.977 563.561 540.503 575.859 532.762 581.528C528.623 584.555 522.07 586.892 511.761 587.007C481.755 587.351 455.658 584.402 439.678 577.238C431.477 573.56 423.659 567.584 417.949 562.604C414.73 559.807 416.876 554.482 421.168 554.712L434.811 555.401V555.363Z" fill="#001018"/>
<path d="M211.816 638.342L233.583 584.708L252.514 591.221L247.953 603.595L452.784 651.865L577.943 791.656C581.354 795.449 578.403 801.463 573.306 801.08L455.351 674.008L240.749 621.83L233.966 646.616C233.391 648.685 231.168 649.834 229.137 649.03L213.808 643.054C211.931 642.326 211.011 640.18 211.777 638.303L211.816 638.342Z" fill="#75B8D8"/>
<path d="M576.678 790.737H405.763V801.808H571.428C577.138 801.808 580.319 795.142 576.678 790.737Z" fill="#75B8D8"/>
<path d="M262.937 620.566L411.664 801.195L420.785 795.985L277.959 617.961L265.543 620.566" fill="#75B8D8"/>
<path d="M407.104 826.288C426.554 826.288 442.322 810.526 442.322 791.082C442.322 771.638 426.554 755.875 407.104 755.875C387.654 755.875 371.886 771.638 371.886 791.082C371.886 810.526 387.654 826.288 407.104 826.288Z" fill="#001018"/>
<path d="M634.683 701.905C627.602 697.23 619.062 692.149 609.684 687.852L608.414 691.419C610.332 692.203 612.251 693.095 614.062 694.041C615.197 694.581 616.224 695.122 617.278 695.743C623.71 699.176 629.791 703.365 635.44 708.256C636.385 709.067 637.331 709.932 638.25 710.797C637.169 707.797 635.953 704.824 634.629 701.905H634.683ZM682.14 782.767C681.384 756.822 671.898 733.147 656.601 714.445C656.141 713.878 655.709 713.364 655.223 712.824C652.898 710.067 650.466 707.419 647.871 704.932C642.007 699.149 635.494 694.014 628.44 689.635C623.224 686.392 617.738 683.555 612.035 681.149C608.197 679.501 604.279 678.122 600.225 676.96C589.036 673.663 577.199 672.096 564.875 672.474C529.255 673.555 497.932 691.014 477.851 717.337C462.582 737.39 453.798 762.66 454.609 789.794C454.771 794.469 455.177 799.09 455.879 803.658C457.393 813.766 460.258 823.522 464.365 832.711C470.419 846.305 479.176 858.737 490.391 869.25C491.608 870.385 492.878 871.52 494.121 872.601C494.932 873.304 495.77 874.006 496.607 874.682C498.175 875.979 499.742 877.195 501.364 878.358C521.742 893.276 546.281 900.897 571.875 900.113C576.091 899.978 580.226 899.627 584.334 899.059C609.954 895.492 633.386 883.411 651.331 864.304C654.844 860.547 658.06 856.629 661.006 852.521C675.492 832.332 682.951 808.063 682.14 782.821V782.767ZM664.249 823.738C663.844 824.927 663.357 826.008 662.844 827.116C659.412 835.197 654.871 842.791 649.331 849.818C647.466 852.223 645.466 854.548 643.331 856.818C638.683 861.764 633.602 866.223 628.197 870.088C627.197 870.79 626.197 871.493 625.17 872.142C610.657 881.79 593.928 887.6 576.226 888.898C575.523 888.979 574.82 889.006 574.091 889.06C573.226 889.141 572.361 889.168 571.496 889.195C571.145 889.195 570.794 889.195 570.442 889.195C554.578 889.546 539.146 886.303 525.12 879.763C524.012 879.276 522.931 878.763 521.85 878.168C518.579 876.52 515.417 874.709 512.336 872.682C507.256 869.358 502.418 865.574 497.878 861.277C493.553 857.223 489.608 852.872 486.175 848.224C485.419 847.224 484.716 846.278 484.04 845.251C475.5 833.17 469.771 819.441 467.176 804.82C466.987 803.739 466.798 802.658 466.636 801.577C466.419 800.388 466.257 799.199 466.149 797.955C465.798 795.145 465.582 792.307 465.528 789.442C465.122 776.091 467.203 763.038 471.662 750.876C472.095 749.714 472.5 748.606 472.987 747.471C477.716 735.877 484.581 725.121 493.391 715.743C497.986 710.932 502.931 706.527 508.229 702.716C509.201 701.986 510.174 701.311 511.228 700.608C526.768 690.176 544.984 684.203 564.172 683.447C564.497 683.393 564.875 683.366 565.199 683.366C566.091 683.311 566.929 683.311 567.821 683.366C577.685 683.284 587.387 684.609 596.603 687.257C600.009 688.203 603.252 689.284 606.468 690.608C607.116 690.825 607.819 691.149 608.414 691.419C610.332 692.203 612.251 693.095 614.062 694.041C615.197 694.581 616.224 695.122 617.278 695.743C623.71 699.176 629.791 703.365 635.44 708.256C636.385 709.067 637.331 709.932 638.25 710.797C638.439 710.959 638.602 711.121 638.791 711.283C640.385 712.797 641.953 714.337 643.439 715.932C646.763 719.472 649.79 723.202 652.547 727.093C653.25 728.093 653.952 729.093 654.574 730.12C657.493 734.499 660.006 739.12 662.141 743.931C666.438 753.417 669.249 763.605 670.465 774.119C670.627 775.335 670.708 776.524 670.844 777.74C670.979 779.497 671.06 781.307 671.114 783.064C671.546 797.199 669.168 810.928 664.141 823.684L664.249 823.738ZM634.683 701.932C627.602 697.257 619.062 692.176 609.684 687.879L608.414 691.446C610.332 692.23 612.251 693.122 614.062 694.068C615.197 694.608 616.224 695.149 617.278 695.77C623.71 699.203 629.791 703.392 635.44 708.283C636.385 709.094 637.331 709.959 638.25 710.824C637.169 707.824 635.953 704.851 634.629 701.932H634.683Z" fill="#001018"/>
<path d="M602.549 782.902C603.117 801.387 588.604 816.846 570.118 817.414C551.632 817.981 536.173 803.468 535.606 784.983C535.038 766.497 549.551 751.038 568.037 750.471C586.523 749.903 601.981 764.416 602.549 782.902Z" fill="#001018"/>
<path d="M567.753 680.942L564.106 681.055L570.706 894.62L574.353 894.507L567.753 680.942Z" fill="#001018"/>
<path d="M615.391 691.524L519.686 882.559L522.948 884.193L618.653 693.158L615.391 691.524Z" fill="#001018"/>
<path d="M655.629 725.074L480.582 847.598L482.674 850.587L657.721 728.063L655.629 725.074Z" fill="#001018"/>
<path d="M675.044 773.683L462.802 798.316L463.222 801.94L675.465 777.307L675.044 773.683Z" fill="#001018"/>
<path d="M470.633 746.536L469.281 749.925L667.723 829.135L669.075 825.747L470.633 746.536Z" fill="#001018"/>
<path d="M509.964 698.869L506.962 700.943L628.383 876.756L631.386 874.683L509.964 698.869Z" fill="#001018"/>
<path d="M229.125 701.905C222.045 697.23 213.504 692.149 204.126 687.852L202.856 691.419C204.775 692.203 206.694 693.095 208.505 694.041C209.64 694.581 210.667 695.122 211.721 695.743C218.153 699.176 224.234 703.365 229.882 708.256C230.828 709.067 231.774 709.932 232.693 710.797C231.612 707.797 230.396 704.824 229.071 701.905H229.125ZM276.583 782.767C275.826 756.822 266.34 733.147 251.043 714.445C250.584 713.878 250.152 713.364 249.665 712.824C247.341 710.067 244.908 707.419 242.314 704.932C236.449 699.149 229.936 694.014 222.882 689.635C217.666 686.392 212.18 683.555 206.478 681.149C202.64 679.501 198.721 678.122 194.667 676.96C183.479 673.663 171.641 672.096 159.317 672.474C123.697 673.555 92.3742 691.014 72.2939 717.337C57.0243 737.39 48.2408 762.66 49.0516 789.794C49.2138 794.469 49.6192 799.09 50.3218 803.658C51.8353 813.766 54.7 823.522 58.808 832.711C64.8618 846.305 73.6182 858.737 84.8339 869.25C86.0501 870.385 87.3203 871.52 88.5635 872.601C89.3743 873.304 90.2121 874.006 91.0499 874.682C92.6174 875.979 94.1849 877.195 95.8065 878.358C116.184 893.276 140.724 900.897 166.317 900.113C170.533 899.978 174.668 899.627 178.776 899.059C204.397 895.492 227.828 883.411 245.773 864.304C249.287 860.547 252.503 856.629 255.449 852.521C269.934 832.332 277.394 808.063 276.583 782.821V782.767ZM258.692 823.738C258.286 824.927 257.8 826.008 257.286 827.116C253.854 835.197 249.314 842.791 243.773 849.818C241.909 852.223 239.909 854.548 237.774 856.818C233.125 861.764 228.044 866.223 222.639 870.088C221.639 870.79 220.639 871.493 219.612 872.142C205.099 881.79 188.37 887.6 170.668 888.898C169.966 888.979 169.263 889.006 168.533 889.06C167.668 889.141 166.804 889.168 165.939 889.195C165.587 889.195 165.236 889.195 164.885 889.195C149.021 889.546 133.589 886.303 119.562 879.763C118.454 879.276 117.373 878.763 116.292 878.168C113.022 876.52 109.86 874.709 106.779 872.682C101.698 869.358 96.8605 865.574 92.3201 861.277C87.996 857.223 84.0502 852.872 80.6179 848.224C79.8612 847.224 79.1585 846.278 78.4829 845.251C69.9427 833.17 64.2132 819.441 61.6187 804.82C61.4295 803.739 61.2403 802.658 61.0782 801.577C60.8619 800.388 60.6998 799.199 60.5917 797.955C60.2403 795.145 60.0242 792.307 59.9701 789.442C59.5647 776.091 61.6457 763.038 66.105 750.876C66.5374 749.714 66.9428 748.606 67.4293 747.471C72.1588 735.877 79.0234 725.121 87.8338 715.743C92.4282 710.932 97.374 706.527 102.671 702.716C103.644 701.986 104.617 701.311 105.671 700.608C121.211 690.176 139.426 684.203 158.615 683.447C158.939 683.393 159.317 683.366 159.642 683.366C160.534 683.311 161.371 683.311 162.263 683.366C172.128 683.284 181.83 684.609 191.046 687.257C194.451 688.203 197.694 689.284 200.91 690.608C201.559 690.825 202.262 691.149 202.856 691.419C204.775 692.203 206.694 693.095 208.505 694.041C209.64 694.581 210.667 695.122 211.721 695.743C218.153 699.176 224.234 703.365 229.882 708.256C230.828 709.067 231.774 709.932 232.693 710.797C232.882 710.959 233.044 711.121 233.233 711.283C234.828 712.797 236.395 714.337 237.882 715.932C241.206 719.472 244.233 723.202 246.989 727.093C247.692 728.093 248.395 729.093 249.016 730.12C251.935 734.499 254.449 739.12 256.584 743.931C260.881 753.417 263.691 763.605 264.908 774.119C265.07 775.335 265.151 776.524 265.286 777.74C265.421 779.497 265.502 781.307 265.556 783.064C265.989 797.199 263.61 810.928 258.584 823.684L258.692 823.738ZM229.125 701.932C222.045 697.257 213.504 692.176 204.126 687.879L202.856 691.446C204.775 692.23 206.694 693.122 208.505 694.068C209.64 694.608 210.667 695.149 211.721 695.77C218.153 699.203 224.234 703.392 229.882 708.283C230.828 709.094 231.774 709.959 232.693 710.824C231.612 707.824 230.396 704.851 229.071 701.932H229.125Z" fill="#001018"/>
<path d="M196.992 782.902C197.559 801.387 183.046 816.846 164.561 817.414C146.075 817.981 130.616 803.468 130.049 784.983C129.481 766.497 143.994 751.038 162.48 750.471C180.965 749.903 196.424 764.416 196.992 782.902Z" fill="#001018"/>
<path d="M162.195 680.942L158.549 681.055L165.148 894.62L168.795 894.507L162.195 680.942Z" fill="#001018"/>
<path d="M209.834 691.524L114.129 882.559L117.391 884.193L213.096 693.158L209.834 691.524Z" fill="#001018"/>
<path d="M250.071 725.074L75.0242 847.598L77.1163 850.587L252.163 728.063L250.071 725.074Z" fill="#001018"/>
<path d="M269.487 773.683L57.2444 798.316L57.665 801.94L269.907 777.307L269.487 773.683Z" fill="#001018"/>
<path d="M65.0757 746.536L63.7231 749.925L262.165 829.135L263.518 825.747L65.0757 746.536Z" fill="#001018"/>
<path d="M104.406 698.869L101.404 700.943L222.826 876.756L225.828 874.683L104.406 698.869Z" fill="#001018"/>
<path d="M444.774 575.897C444.774 575.897 439.371 601.335 445.234 633.131C451.136 664.89 448.185 730.936 446.729 752.465C446.346 758.02 446.806 767.559 447.725 778.631C448.453 787.595 449.488 797.556 450.599 807.21C451.634 816.596 452.784 825.675 453.742 833.298C454.317 837.972 454.891 842.148 455.313 845.443C456.003 850.576 453.09 855.441 448.262 857.28C438.758 860.843 423.468 866.589 415.42 869.807C403.195 874.711 357.209 883.024 354.756 875.707C352.304 868.352 407.104 842.914 412.469 837.551C413.887 836.133 414.807 834.141 415.382 831.575C416.148 828.203 416.263 823.913 415.995 818.932C415.727 813.109 414.883 806.29 413.925 798.897C413.427 794.989 412.086 788.898 410.17 781.389C403.042 753.232 388.326 704.54 382.157 671.747C374.301 630.182 370.89 522.111 370.89 522.111L465.813 483.456V520.616C465.813 557.815 444.774 575.897 444.774 575.897Z" fill="#BEDEEF"/>
<path d="M415.381 831.574C416.148 828.203 416.263 823.912 415.995 818.932C415.726 813.109 414.883 806.29 413.925 798.896C413.427 794.989 412.086 788.898 410.17 781.389L447.725 778.631C448.453 787.595 449.488 797.556 450.599 807.21C451.634 816.595 452.784 825.675 453.742 833.298L415.381 831.574Z" fill="#C77F67"/>
<path d="M264.47 517.705C264.47 517.705 254.698 527.244 242.205 535.059C229.712 542.874 219.212 547.05 226.8 557.049C234.387 567.086 258.338 570.725 262.017 565.362C265.696 559.999 242.703 555.823 249.065 548.008C255.426 540.193 268.647 552.643 268.647 552.643L284.551 538.967L264.508 517.705H264.47Z" fill="#C77F67"/>
<path d="M328.966 268.119C328.966 268.119 309.728 255.4 314.633 247.585C319.539 239.77 344.946 246.78 344.946 246.78L328.966 268.119Z" fill="#001018"/>
<path d="M381.735 248.619C391.507 258.388 395.875 272.333 404.575 283.098C407.104 286.239 410.055 289.112 413.58 290.989C421.819 295.395 431.783 293.901 441.134 293.096C452.707 292.139 465.008 292.637 474.934 298.651C489.036 307.233 495.052 326.426 489.649 342.018C486.622 350.752 480.452 358.337 472.519 363.088C462.019 369.371 449.143 370.482 436.957 369.409C428.449 368.643 419.903 366.842 412.277 363.011C400.014 356.843 390.855 345.81 384.187 333.819C374.798 316.963 369.778 297.732 369.702 278.424C369.702 268.655 371.081 258.35 377.021 250.535" fill="#6A3B2C"/>
<path d="M392.158 326.005L360.39 341.635L356.136 330.219L350.464 315.086L349.621 312.788L386.065 299.571L392.158 326.005Z" fill="#C77F67"/>
<path opacity="0.4" d="M380.93 308.152C376.331 324.089 361.999 328.878 356.136 330.219L350.464 315.086L380.93 308.152Z" fill="#001018"/>
<path d="M393.078 273.98C393.078 276.815 392.733 279.573 392.082 282.178C391.469 284.745 390.587 287.159 389.476 289.419C388.863 296.889 384.264 310.183 379.052 313.439C371.311 318.266 346.747 323.859 333.373 312.941C328.467 308.918 328.812 273.98 328.812 273.98C328.812 264.441 332.606 255.821 338.738 249.73C344.524 243.945 352.304 240.421 360.926 240.421C378.669 240.421 393.078 255.438 393.078 273.98Z" fill="#C77F67"/>
<path fill-rule="evenodd" clip-rule="evenodd" d="M347.557 281.715C347.962 281.929 348.115 282.431 347.9 282.835C347.577 283.443 347.264 284.052 346.947 284.665L346.946 284.667C346.631 285.278 346.314 285.893 345.987 286.509C345.366 287.71 344.805 288.807 344.526 289.992C344.251 291.16 344.305 292.312 344.826 293.266C345.335 294.153 346.214 294.823 347.262 295.56C347.637 295.823 347.726 296.34 347.463 296.715C347.2 297.089 346.683 297.179 346.308 296.916C345.289 296.199 344.101 295.338 343.383 294.082L343.376 294.07L343.376 294.07C342.597 292.65 342.575 291.046 342.913 289.612C343.243 288.21 343.896 286.945 344.495 285.784C344.502 285.771 344.509 285.757 344.516 285.744L344.52 285.735L344.521 285.735C344.844 285.128 345.157 284.519 345.474 283.905L345.475 283.903C345.79 283.292 346.109 282.675 346.437 282.058C346.651 281.653 347.153 281.5 347.557 281.715Z" fill="#001018"/>
<path d="M385.452 288.193C385.452 288.193 396.45 273.635 404.651 282.83C412.852 291.986 398.29 310.221 386.18 302.866L385.452 288.193Z" fill="#C77F67"/>
<path d="M393.883 273.904C393.883 276.739 392.733 279.573 392.082 282.178C391.737 282.676 391.354 283.175 391.009 283.673C389.476 285.894 388.058 288.883 386.525 291.105C386.142 289.036 385.644 287.235 385.069 285.167C371.848 283.06 359.355 276.7 349.813 267.314C344.831 262.411 340.577 256.434 338.738 249.73C344.525 243.946 352.304 240.421 360.926 240.421C378.669 240.421 393.883 255.362 393.883 273.904Z" fill="#6A3B2C"/>
<path fill-rule="evenodd" clip-rule="evenodd" d="M353.52 300.068C353.947 300.232 354.161 300.711 353.997 301.139C353.186 303.256 351.151 304.681 349.001 305.067L348.986 305.07C346.846 305.412 344.657 304.854 342.869 303.773C342.478 303.537 342.352 303.027 342.589 302.635C342.826 302.244 343.335 302.118 343.727 302.355C345.233 303.265 347.026 303.703 348.716 303.435C350.395 303.13 351.882 302.027 352.449 300.546C352.613 300.118 353.092 299.905 353.52 300.068Z" fill="#001018"/>
<path d="M323.754 269.728C323.754 269.728 327.509 265.016 353.262 267.774C379.014 270.532 384.264 275.589 384.264 275.589C384.264 275.589 382.31 295.165 368.284 294.821C354.258 294.476 353.3 282.102 349.046 282.447C343.298 282.906 341.382 294.821 328.161 291.105C319.462 288.653 323.754 269.766 323.754 269.766V269.728Z" fill="#001018"/>
<path d="M383.229 275.13L403.425 277.581L403.195 281.719L380.93 281.106L383.229 275.13Z" fill="#001018"/>
<path opacity="0.73" d="M383.229 275.13L403.425 277.581L403.195 281.719L380.93 281.106L383.229 275.13Z" fill="#001018"/>
<path d="M382.425 271.797C381.926 281.144 381.352 290.683 378.018 299.418C374.645 308.152 367.977 316.159 358.933 318.611C356.634 319.224 354.296 319.492 352.035 320.181C345.406 322.25 340.309 327.997 337.933 334.547C335.557 341.06 335.595 348.301 336.822 355.12L343.873 355.618C343.106 350.254 343.375 344.699 345.291 339.643C347.245 334.586 350.886 330.104 355.676 327.652C358.512 326.196 361.693 325.468 364.643 324.281C368.59 322.672 372.154 320.105 374.99 316.925C379.742 311.562 382.31 304.666 384.456 297.847C387.215 289.036 389.514 279.88 388.824 270.686C386.678 271.222 384.609 271.222 382.501 271.758L382.425 271.797Z" fill="#001018"/>
<path d="M430.404 266.012C430.289 268.502 429.522 270.992 428.411 273.405C428.219 273.827 428.028 274.21 427.798 274.631C427.07 275.972 426.265 277.313 425.345 278.577C423.314 281.45 420.9 284.094 418.639 286.277C417.221 287.657 415.88 288.844 414.73 289.802C412.431 291.794 410.859 292.905 410.859 292.905C401.547 291.411 394.879 284.745 388.671 279.19C382.654 273.865 365.486 256.396 345.176 247.93C344.524 247.623 343.834 247.355 343.183 247.087C340.309 245.976 337.703 245.21 335.327 244.673C334.905 244.558 334.484 244.443 334.062 244.367C320.535 241.609 315.17 247.01 314.672 247.547C321.723 235.326 355.408 225.442 376.906 227.204C412.737 230.116 431.055 252.45 430.404 266.012Z" fill="#00537D"/>
<path d="M360.62 250.726L369.549 258.388C369.855 258.656 370.277 258.771 370.698 258.695C373.879 258.082 388.556 255.477 400.513 254.978C401.892 254.902 402.352 253.101 401.164 252.412C394.726 248.772 380.547 243.026 361.156 248.313C360.083 248.619 359.777 249.998 360.62 250.726Z" fill="#001018"/>
<path d="M428.411 273.406C428.219 273.827 428.028 274.21 427.798 274.632C423.736 261.798 413.887 250.037 400.244 242.145C393.96 238.467 387.598 236.016 381.39 234.828C365.793 231.84 351.077 236.667 341.42 241.264C339.466 242.222 337.358 243.294 335.327 244.673C334.906 244.559 334.484 244.444 334.062 244.367C336.362 242.758 338.776 241.494 340.999 240.421C350.771 235.747 365.755 230.844 381.582 233.87C387.905 235.096 394.343 237.586 400.743 241.302C414.232 249.156 424.081 260.725 428.411 273.406Z" fill="#001018"/>
<path d="M425.345 278.577C423.314 281.45 420.9 284.094 418.639 286.277C416.991 282.37 413.695 275.321 409.863 270.456C409.442 269.919 410.016 269.191 410.63 269.46C414.347 270.954 421.398 274.248 425.345 278.577Z" fill="#001018"/>
<path d="M414.73 289.802C412.431 291.794 410.859 292.905 410.859 292.905C401.547 291.411 394.879 284.745 388.671 279.19C382.655 273.865 365.486 256.396 345.176 247.93H345.367C351.691 248.274 357.63 251.033 362.842 254.634C368.054 258.197 372.653 262.602 377.404 266.74C383.919 272.371 390.855 277.543 398.137 282.14C403.31 285.435 408.752 288.499 414.73 289.802Z" fill="white"/>
<path d="M465.813 522.762C465.813 523.72 454.7 509.392 436.459 512.303C432.588 512.916 427.721 515.598 422.088 519.084C419.712 520.54 417.183 522.149 414.538 523.835C394.113 536.63 367.326 551.801 345.444 522.417L377.098 481.349L368.591 448.748L282.175 543.602L257.725 522.111C257.725 522.111 297.503 477.097 323.946 437.332C350.349 397.567 350.349 365.923 359.163 357.457L358.167 351.595L351.001 335.62L392.082 313.439L396.987 323.208C396.987 323.208 431.898 338.532 451.136 382.894C470.373 427.218 465.813 521.766 465.813 522.762Z" fill="#00537D"/>
<path d="M422.088 519.084C419.712 520.54 417.183 522.149 414.538 523.834C409.633 489.816 398.865 456.716 386.487 424.536C387.751 422.161 388.633 420.476 389.897 418.062C403.08 438.404 410.131 462.424 415.496 486.1C417.949 497.018 420.172 508.051 422.088 519.084Z" fill="white"/>
<path d="M368.591 342.133C368.591 342.133 358.167 355.503 353.262 368.528C348.931 380.098 341.842 410.898 325.21 434.727C308.578 458.517 290.299 483.303 277.576 497.976C264.853 512.648 257.687 522.111 257.687 522.111" stroke="#001018" stroke-width="0.42" stroke-linecap="round" stroke-linejoin="round"/>
<path d="M282.175 543.602C282.175 543.602 352.304 470.585 369.894 447.407C387.522 424.268 392.082 414.806 392.082 414.806" stroke="#001018" stroke-width="0.42" stroke-linecap="round" stroke-linejoin="round"/>
<path d="M256.154 567.124C263.054 567.124 268.647 561.533 268.647 554.635C268.647 547.738 263.054 542.146 256.154 542.146C249.255 542.146 243.661 547.738 243.661 554.635C243.661 561.533 249.255 567.124 256.154 567.124Z" fill="#001018"/>
<path d="M233.928 591.91C233.276 593.213 232.855 594.669 232.931 596.125C232.931 596.661 233.046 597.236 233.315 597.734C233.583 598.232 234.004 598.653 234.541 598.806C235.461 599.074 236.457 598.5 237.147 597.81C238.258 596.584 238.833 594.937 239.178 593.328C239.446 591.987 239.446 589.689 237.76 589.267C236.035 588.807 234.656 590.608 234.004 591.949L233.928 591.91Z" fill="white"/>
<path d="M231.245 603.059C231.36 603.863 231.896 604.629 232.663 604.936C233.429 605.281 234.349 605.166 234.962 604.629C235.269 604.399 235.499 604.055 235.652 603.71C235.805 603.365 235.959 602.982 235.959 602.561C235.959 601.794 235.537 600.99 234.847 600.607C233.046 599.572 230.938 600.952 231.245 603.02V603.059Z" fill="white"/>
<ellipse cx="175" cy="134.502" rx="64" ry="64.24" fill="#FFCC7A"/>
</g>
<defs>
<clipPath id="clip0_408_6327">
<rect width="580" height="803" fill="white"/>
</clipPath>
</defs>
</svg>
