<svg width="580" height="800" viewBox="0 0 580 800" fill="none" xmlns="http://www.w3.org/2000/svg">
<g clip-path="url(#clip0_408_5782)">
<rect width="580" height="800" fill="#BEDEEF"/>
<path d="M579.942 493.761V800.383H30.1552C19.2586 794.148 9.09027 786.835 0 778.123V507.193C0.466168 507.076 0.903201 506.989 1.36937 506.93C19.8704 503.813 39.8573 513.253 49.1807 529.54C47.1412 502.327 60.5435 470.89 87.1151 464.655C100.11 461.625 113.046 465.238 124.409 472.376C129.362 475.493 134.023 479.31 138.248 483.535C140.812 486.099 143.23 488.837 145.503 491.663C146.464 492.916 147.396 494.169 148.3 495.422C148.562 495.801 148.853 496.209 149.115 496.587C166.334 521.586 174.055 551.333 178.513 581.663C178.921 584.343 179.271 587.053 179.649 589.763C180.203 593.9 180.698 598.037 181.135 602.174C181.572 606.137 181.98 610.041 182.359 613.974C183.029 612.051 183.816 610.216 184.806 608.497C185.68 606.865 186.729 605.321 187.836 603.864C189.992 601.096 192.586 598.62 195.441 596.522C196.985 595.357 198.617 594.308 200.336 593.375C205.755 590.345 211.873 588.393 218.167 587.636C218.895 587.519 219.652 587.461 220.381 587.403C222.333 587.228 224.314 587.199 226.208 587.315C226.732 587.315 227.257 587.373 227.781 587.432C229.762 587.577 231.714 587.869 233.637 588.277C236.668 588.947 239.581 589.85 242.407 590.986C247.069 592.851 251.468 595.357 255.547 598.328C257.033 599.406 258.49 600.543 259.918 601.737C268.192 608.817 275.039 617.82 280.079 627.464C280.487 628.221 280.866 629.008 281.245 629.795C282.09 631.455 282.876 633.174 283.634 634.893C284.566 637.049 285.469 639.264 286.256 641.478C288.791 648.237 290.772 655.172 292.491 662.222C294.385 669.827 295.9 677.519 297.386 685.181C297.561 685.91 297.677 686.667 297.823 687.396C298.173 686.959 298.551 686.551 298.988 686.143C307.612 676.878 319.791 671.866 332.523 670.876C337.651 670.497 342.866 670.73 347.936 671.633C353.151 672.566 358.25 674.168 362.97 676.411C384.326 686.551 398.981 707.732 405.945 730.37C406.061 719.882 406.178 709.305 407.227 698.875C407.343 697.651 407.46 696.398 407.634 695.175C408.013 691.853 408.538 688.59 409.179 685.327C409.791 682.18 410.49 679.092 411.364 676.033C411.597 675.071 411.917 674.081 412.209 673.119C412.267 672.915 412.354 672.711 412.413 672.507C412.762 671.4 413.112 670.351 413.549 669.273C414.219 667.438 414.948 665.631 415.763 663.854C415.851 663.621 415.967 663.359 416.055 663.155C416.055 663.067 416.142 663.009 416.171 662.922C416.55 662.077 416.958 661.232 417.395 660.358C417.861 659.425 418.356 658.464 418.91 657.561C419.318 656.774 419.755 655.988 420.25 655.23C420.483 654.764 420.804 654.298 421.124 653.831C423.222 650.481 425.582 647.334 428.204 644.421C431.438 640.837 435.022 637.632 439.013 634.952C440.383 634.048 441.81 633.174 443.296 632.388C444.374 631.776 445.452 631.251 446.618 630.756C447.084 630.523 447.55 630.319 448.045 630.115C465.905 622.86 489.418 628.513 498.508 645.499C495.915 602.67 507.977 559.083 532.247 523.712C544.193 506.26 560.916 490.44 579.709 481.058C579.913 485.254 580 489.478 580 493.732L579.942 493.761Z" fill="#75B8D8"/>
<path d="M338.787 441.143L304.116 349.133L289.199 351.027L326.813 447.611L338.787 441.143Z" fill="#001018"/>
<g opacity="0.37">
<path d="M338.758 441.172L326.813 447.611L318.363 425.876L289.228 351.027L304.116 349.162L333.106 426.08L338.758 441.172Z" fill="#001018"/>
</g>
<path d="M338.758 441.172L326.813 447.611L318.363 425.876C322.763 425.876 328.007 425.993 333.077 426.08L338.758 441.172Z" fill="#001018"/>
<path d="M417.774 615.227C417.541 615.285 417.278 615.314 417.045 615.431C417.307 615.489 417.657 615.547 417.919 615.606L417.774 615.256V615.227ZM588 409.5C586.397 402.245 587.156 403.616 585 396.623L459.321 562.637L423.688 613.362L423.455 613.712L421.474 616.48L419.463 619.393L417.861 615.576L417.715 615.227L416.171 611.643L391.144 551.187L383.394 532.511L365.505 489.391L389.629 478.086L424.271 461.858L446.589 451.34L470.392 440.21L492.127 429.954L609.497 379.136C609.118 378.088 608.769 377.068 608.361 376.048C606.7 371.474 604.894 366.958 603 362.5C601.543 359.091 600.028 355.741 598.455 352.448L464.536 411.686L442.48 422.204L421.241 432.285L399.506 442.599L379.315 452.243L352.831 464.83L344.731 445.571L344.061 443.939L320.578 450.903L321.393 452.767L332.261 476.6L341.934 497.898L361.63 541.164L370.341 560.248L394.669 613.77L396.184 617.121L397.204 619.306L404.196 634.689L407.634 642.265L409.528 646.402L411.043 649.781C411.16 650.015 411.276 650.248 411.422 650.481C411.422 650.568 411.48 650.597 411.568 650.656V650.714C411.655 650.947 411.772 651.034 411.801 651.18C412.384 652.083 413.054 652.782 413.84 653.278C414.044 653.453 414.19 653.569 414.423 653.715C414.51 653.802 414.656 653.89 414.744 653.89H414.802C415.443 654.297 416.084 654.618 416.812 654.793C417.861 655.084 418.91 655.201 420.017 655.113C421.619 655.055 423.164 654.531 424.533 653.598H424.591C425.407 652.957 426.194 652.316 426.835 651.384L429.515 647.596L436.012 638.652V638.593L438.751 634.835L441.781 630.639L442.073 630.29L442.16 630.202L444.054 627.493L457.252 609.225L462.089 602.582L462.234 602.378L487.699 567.241L593.478 433.218C592.604 428.061 591.584 422.933 590.448 417.863L588 409.5ZM417.774 615.227C417.541 615.285 417.278 615.314 417.045 615.431C417.307 615.489 417.657 615.547 417.919 615.606L417.774 615.256V615.227ZM417.774 615.227C417.541 615.285 417.278 615.314 417.045 615.431C417.307 615.489 417.657 615.547 417.919 615.606L417.774 615.256V615.227Z" fill="white"/>
<path d="M168.403 654.997L415.414 669.361L417.861 646.868L192.411 637.632L328.357 510.747L341.759 498.248L349.975 490.556L337.564 471.618L332.028 477.038L325.414 483.447L163.217 641.012C158.089 645.965 161.323 654.618 168.403 655.026V654.997Z" fill="white"/>
<path d="M308.451 530.369L336.187 520.142C336.187 520.142 292.572 460.997 205.107 456.219C117.642 451.441 52 526.465 52 526.465L68.1702 544.674C68.1702 544.674 134.104 478.391 196.599 483.315C275 484.5 306.032 532.933 306.032 532.933L308.451 530.369Z" fill="#F78C66"/>
<path d="M325.385 483.418C326.346 492.188 327.424 501.919 328.357 510.689L341.759 498.219L332.028 477.008L325.414 483.418H325.385Z" fill="#001018"/>
<path d="M352.393 443.27L348.198 434.325L309.36 446.445L312.245 455.71L352.393 443.27Z" fill="#FFF1EB"/>
<path d="M568.695 611.556C568.753 609.867 568.811 608.264 568.899 606.632C569.685 592.269 572.657 578.167 577.698 564.94C578.397 563.046 579.154 561.152 579.941 559.316V528.52C562.547 554.451 552.816 585.801 553.894 619.306C554.71 645.791 562.081 671.109 575.279 693.311C576.765 695.845 578.31 698.293 579.941 700.711V669.623C573.153 653.745 569.307 636.613 568.753 618.869C568.666 616.451 568.666 613.975 568.695 611.615V611.556Z" fill="#001018"/>
<path d="M568.87 606.632L579.941 607.215V612.197L568.695 611.556L562.431 611.236L562.693 606.283L568.87 606.632Z" fill="#001018"/>
<path d="M354.695 620.85C353.559 584.576 339.982 551.508 318.159 525.781C317.78 525.344 317.402 524.878 316.994 524.441C316.498 523.858 316.003 523.275 315.479 522.751C310.759 517.419 305.66 512.437 300.27 507.834C272.009 483.709 235.036 469.608 195.033 470.831C178.309 471.327 162.372 474.473 147.454 479.922C144.337 481.029 141.248 482.223 138.248 483.535C136.033 484.496 133.848 485.516 131.692 486.565C108.588 497.927 88.8046 514.826 73.9746 535.541C72.1974 538.047 70.4784 540.553 68.8468 543.175C52.8806 568.435 44.0525 598.503 45.0723 630.494C45.5384 645.615 48.1315 660.329 52.764 674.314C60.718 698.554 74.6739 720.581 93.7868 738.557C123.942 766.877 163.304 781.794 204.735 780.512C243.805 779.318 280.225 763.76 308.02 736.605C308.719 735.906 309.448 735.207 310.118 734.508C311.021 733.604 311.895 732.672 312.769 731.769C329.143 714.317 341.03 693.805 347.877 671.633C348.518 669.623 349.072 667.583 349.625 665.544C351.49 658.58 352.83 651.471 353.704 644.246C354.578 636.554 354.928 628.746 354.695 620.879V620.85ZM334.417 664.641C333.805 666.738 333.193 668.778 332.435 670.847C329.172 680.549 324.773 689.872 319.383 698.671C318.567 700.099 317.664 701.468 316.702 702.866C312.419 709.451 307.466 715.715 301.931 721.542C297.706 726.029 293.277 730.195 288.616 734.041C282.993 738.703 277.049 742.869 270.814 746.511C269.415 747.356 267.959 748.201 266.502 748.93C248.03 758.981 227.373 764.663 205.784 765.508C205.317 765.508 204.822 765.508 204.327 765.566C203.161 765.566 201.996 765.653 200.831 765.566C175.687 765.799 151.417 759.244 130.09 746.89C128.662 746.103 127.263 745.259 125.836 744.355C118.144 739.519 110.889 733.925 104.13 727.602C93.2623 717.405 84.2595 705.78 77.267 693.048C76.5386 691.708 75.8102 690.367 75.1401 688.998C74.3534 687.57 73.625 686.084 72.9549 684.54C65.0883 667.612 60.6889 649.17 60.1062 629.969C60.0188 627.551 60.0188 625.075 60.0479 622.715C60.1062 621.054 60.1644 619.422 60.2518 617.791C61.0094 603.369 64.0103 589.296 69.0216 576.069C71.5564 569.339 74.5574 562.841 78.141 556.665C78.8986 555.208 79.7726 553.809 80.6467 552.382C85.5706 544.369 91.4268 536.765 98.0406 529.714C99.4099 528.228 100.867 526.742 102.323 525.315C109.578 518.206 117.503 512 125.923 506.785C127.322 505.881 128.691 505.037 130.177 504.221C132.595 502.764 135.101 501.395 137.636 500.171C138.481 499.734 139.355 499.268 140.258 498.889C142.938 497.607 145.648 496.412 148.445 495.364C150.077 494.693 151.708 494.111 153.369 493.528C165.693 489.158 178.746 486.565 192.148 485.807C193.314 485.691 194.479 485.632 195.644 485.603C196.111 485.603 196.635 485.603 197.101 485.603C209.921 485.341 222.507 486.769 234.628 489.857C247.185 493.004 259.189 497.927 270.406 504.512C271.863 505.328 273.261 506.173 274.631 507.076C279.875 510.368 284.916 514.039 289.723 518.089C290.306 518.526 290.859 519.022 291.384 519.488L291.442 519.546C292.957 520.828 294.443 522.168 295.87 523.538C299.017 526.48 301.989 529.539 304.844 532.715C313.497 542.476 320.723 553.314 326.288 564.852C327.016 566.367 327.686 567.823 328.327 569.368C335.436 585.509 339.341 603.048 339.923 621.2C340.069 625.133 340.011 628.979 339.778 632.825C339.719 634.515 339.632 636.175 339.428 637.778C339.253 639.701 339.078 641.595 338.816 643.488C337.942 650.656 336.514 657.677 334.504 664.524L334.417 664.641Z" fill="#001018"/>
<path d="M153.165 623.968C153.952 649.111 174.958 668.895 200.131 668.108C225.275 667.321 245.058 646.314 244.272 621.141C243.485 595.998 222.478 576.215 197.305 577.001C172.161 577.788 152.378 598.824 153.165 623.968Z" fill="#001018"/>
<path d="M196.843 482.452L191.892 482.606L200.923 773.209L205.874 773.055L196.843 482.452Z" fill="#001018"/>
<path d="M128.001 500.893L123.718 503.381L269.748 754.79L274.031 752.302L128.001 500.893Z" fill="#001018"/>
<path d="M76.1653 549.87L73.5811 554.095L321.613 705.792L324.197 701.566L76.1653 549.87Z" fill="#001018"/>
<path d="M53.8641 617.559L53.5989 622.505L343.895 638.074L344.161 633.128L53.8641 617.559Z" fill="#001018"/>
<path d="M329.244 563.398L66.4097 687.695L68.5272 692.172L331.361 567.875L329.244 563.398Z" fill="#001018"/>
<path d="M271.809 502.069L121.674 751.049L125.915 753.606L276.05 504.627L271.809 502.069Z" fill="#001018"/>
<path d="M388.959 655.696C389.308 667.322 399.039 676.441 410.635 676.062C422.26 675.713 431.38 665.981 431.001 654.385C430.651 642.76 420.92 633.641 409.324 634.02C397.699 634.369 388.58 644.101 388.959 655.696Z" fill="#001018"/>
<path d="M447.084 631.601C446.909 631.339 446.734 631.048 446.53 630.785C446.064 630.057 445.511 629.299 444.957 628.629C444.724 628.28 444.491 627.93 444.258 627.61C442.976 626.007 441.577 624.521 440.033 623.094C435.43 618.723 430.04 615.46 424.183 613.537C424.038 613.45 423.921 613.362 423.688 613.362C421.27 612.517 418.793 611.935 416.229 611.643C413.753 611.206 411.218 611.061 408.596 611.148C403.759 611.323 399.127 612.226 394.786 613.858C393.883 614.149 393.038 614.528 392.193 614.906C386.89 617.179 382.112 620.617 377.975 624.958C372.643 630.64 369.03 637.37 367.34 644.799C366.35 648.5 366 652.433 366.146 656.395C366.233 659.892 366.728 663.33 367.719 666.564C369.7 674.372 373.954 681.394 379.956 687.017C387.502 694.097 397.029 698.205 407.197 698.846C408.567 698.962 409.965 698.991 411.364 698.933C419.726 698.671 427.651 696.107 434.41 691.591C436.624 690.076 438.722 688.386 440.674 686.492C441.14 686.055 441.636 685.589 442.014 685.123C450.056 676.557 454.28 665.427 453.931 653.686C453.669 645.703 451.338 638.127 447.142 631.601H447.084ZM440.062 681.714C439.829 682.035 439.596 682.326 439.305 682.617C438.722 683.258 438.139 683.812 437.528 684.336C435.896 685.88 434.177 687.25 432.371 688.444C426.689 692.29 420.075 694.621 413.054 695.087C412.442 695.204 411.859 695.233 411.247 695.262C410.606 695.262 409.994 695.262 409.412 695.204C408.8 695.204 408.188 695.204 407.576 695.146C398.952 694.679 390.911 691.533 384.326 686.026C383.685 685.473 383.132 684.948 382.491 684.395C382.199 684.103 381.937 683.841 381.646 683.608C376.897 678.859 373.488 673.119 371.565 666.884C370.836 664.32 370.312 661.815 370.079 659.105C369.904 658.231 369.875 657.328 369.846 656.337V655.434C369.758 651.879 370.195 648.325 371.099 644.974C372.526 639.235 375.236 633.99 379.053 629.387C379.577 628.746 380.16 628.105 380.684 627.493L381.5 626.677L381.937 626.269C385.404 622.89 389.337 620.267 393.62 618.344C394.494 617.907 395.398 617.529 396.33 617.237C400.234 615.781 404.43 615.023 408.713 614.848C411.568 614.761 414.307 614.994 417.045 615.46C417.307 615.518 417.657 615.577 417.919 615.635C419.143 615.868 420.367 616.188 421.503 616.538C427.068 618.17 432.196 621.054 436.653 625.016C436.974 625.279 437.265 625.512 437.557 625.774C438.168 626.328 438.751 626.939 439.276 627.551C440.237 628.542 441.169 629.562 441.927 630.61C441.927 630.669 441.985 630.698 441.985 630.785C442.422 631.31 442.83 631.863 443.209 632.417C443.471 632.796 443.762 633.204 443.996 633.611C447.638 639.322 449.823 645.965 450.085 652.928C450.143 653.19 450.143 653.511 450.172 653.831C450.231 654.764 450.231 655.696 450.114 656.57C449.823 665.952 446.326 674.722 440.062 681.714Z" fill="#001018"/>
<path d="M410.576 614.944L406.906 615.058L409.453 697.006L413.122 696.892L410.576 614.944Z" fill="#001018"/>
<path d="M381.359 626.621L378.846 629.297L438.613 685.421L441.126 682.745L381.359 626.621Z" fill="#001018"/>
<path d="M450.888 652.938L368.938 655.413L369.049 659.083L450.999 656.607L450.888 652.938Z" fill="#001018"/>
<path d="M436.747 624.85L380.602 684.596L383.277 687.11L439.422 627.364L436.747 624.85Z" fill="#001018"/>
<path d="M228.801 320.725C248.758 318.628 265.22 330.515 290.422 328.417C315.624 326.319 373.05 313.005 370.953 320.026C368.855 327.048 305.136 369.731 263.122 367.634C221.109 365.536 179.125 325.941 228.801 320.725Z" fill="#F78C66"/>
<path d="M408.304 651.239L451.716 718.454" stroke="#001018" stroke-width="0.94" stroke-miterlimit="10"/>
<path d="M420.192 718.454H477.618" stroke="#001018" stroke-width="2.82" stroke-miterlimit="10"/>
<path d="M579.942 691.242V800.383H0V666.389C29.5142 661.465 62.0586 672.711 80.1226 696.894C104.334 673.731 142.88 668.749 174.026 681.19C205.172 693.602 228.801 721.426 240.455 752.863C260.384 737.596 286.722 730.866 311.604 734.741C336.457 738.616 359.503 753.038 373.837 773.666C385.87 746.57 412.821 726.67 442.277 723.058C471.703 719.503 502.616 732.352 520.826 755.777C530.615 731.565 546.99 709.306 569.657 696.282C572.978 694.388 576.445 692.698 580 691.271L579.942 691.242Z" fill="#B7DBEB"/>
<path d="M579.942 728.477V800.383H345.11C348.373 788.583 356.909 777.395 366.233 771.131C380.83 761.283 400.7 759.856 416.55 767.518C413.753 735.906 436.566 706.042 465.381 692.64C486.533 682.792 511.386 680.345 533.5 687.629C553.661 694.242 571.23 709.218 579.942 728.506V728.477Z" fill="#F78C66"/>
<path d="M181.049 757.699C180.408 763.41 182.739 769.266 186.643 773.491C190.547 777.715 195.879 780.483 201.414 781.998C207.3 783.601 213.506 783.921 219.507 782.931C227.258 781.649 234.541 778.182 242.35 777.308C248.526 776.608 254.907 777.599 260.589 780.105C265.104 782.086 269.271 785.058 274.107 785.902C278.915 786.747 284.101 785.291 287.772 782.057L288.209 773.695C284.363 778.094 276.205 777.453 270.757 775.355C265.308 773.258 260.472 769.674 254.878 768.072C246.05 765.566 236.581 768.392 228.248 772.296C224.315 774.132 220.44 776.23 216.157 776.987C209.98 778.065 203.308 776.084 198.763 771.743C194.218 767.401 191.887 760.875 192.674 754.64C189.061 755.98 184.865 757.408 181.049 757.67V757.699Z" fill="#001018"/>
<path d="M82.2789 728.913C92.6803 729.147 101.683 736.605 107.539 745.229C111.385 750.911 114.241 758.69 110.366 764.371C108.21 767.547 104.334 769.237 100.518 769.645C96.701 770.053 92.8551 769.383 89.0675 768.683C82.4829 767.489 75.9274 766.294 69.3428 765.129C61.1848 763.643 52.8521 762.186 44.6942 763.643C36.5362 765.1 28.4948 770.111 25.8435 777.948H41.0814C41.5475 772.413 47.5203 769.849 53.0852 769.47C58.6209 769.091 63.9819 771.189 69.3136 772.762C75.199 774.54 81.2301 775.763 87.3194 776.404C94.6906 777.191 102.47 777.045 109.113 773.753C115.756 770.431 120.913 763.235 119.864 755.893C119.281 751.843 116.979 748.259 114.59 744.938C109.783 738.208 104.364 731.914 98.4783 726.116C93.7583 726.67 86.8532 727.661 82.2498 728.943L82.2789 728.913Z" fill="#001018"/>
<path d="M246.72 736.839C244.826 737.509 243.049 737.509 243.049 737.509C243.049 737.509 250.565 748.551 243.136 760.788C243.049 760.963 242.932 761.109 242.815 761.283C240.892 764.313 238.183 766.324 235.065 767.577C225.392 771.51 211.815 768.218 205.522 765.45C200.802 763.381 196.432 764.401 191.042 766.47C186.934 768.043 182.301 770.228 176.474 772.122C175.425 772.471 174.289 772.588 173.065 772.501C158.934 771.539 135.247 743.103 116.251 734.217C95.623 724.544 82.716 748.231 75.1407 745.958C73.5383 745.492 69.9546 744.443 66.3127 741.471C61.5053 737.538 56.6106 730.225 56.2901 716.24C56.2609 714.171 56.2901 712.015 56.5232 709.801C57.4264 699.72 61.0683 688.532 68.1191 678.218C71.324 673.556 75.2281 669.04 79.919 664.932C86.0083 659.601 93.3796 654.881 102.208 651.21C106.928 649.257 112.085 647.597 117.679 646.286C155.409 637.458 201.734 668.691 201.734 668.691L202.9 669.128C229.413 685.677 249.109 720.173 250.857 728.885C251.877 733.838 249.196 735.936 246.69 736.839H246.72Z" fill="#F8B89F"/>
<path d="M209.747 689.639C211.378 693.777 215.137 696.661 218.691 699.312C220.148 700.39 221.925 701.556 223.673 701.002C224.984 700.594 225.859 699.283 226.092 697.914C226.296 696.544 225.946 695.175 225.421 693.893C223.644 689.523 220.148 686.143 216.186 683.696C214.467 682.618 212.602 681.277 210.737 682.734C208.669 684.337 208.902 687.454 209.747 689.639Z" fill="white"/>
<path d="M227.344 705.46C227.082 706.655 227.432 707.937 228.102 708.956C228.772 709.976 229.733 710.763 230.782 711.404C231.744 712.016 232.909 712.511 234.016 712.22C235.502 711.841 236.347 710.122 236.172 708.607C235.997 707.092 235.036 705.781 233.958 704.674C232.006 702.692 228.131 701.847 227.344 705.431V705.46Z" fill="white"/>
<path d="M173.094 772.5C158.963 771.539 135.276 743.103 116.28 734.216C95.6518 724.543 82.7448 748.23 75.1696 745.958C73.5672 745.492 69.9835 744.443 66.3416 741.471C69.5173 741.18 72.664 740.218 75.5484 738.936C81.0841 736.46 85.9789 732.759 91.1941 729.7C97.6331 725.913 104.713 722.999 112.113 722.009C119.514 721.047 127.351 722.125 133.819 725.884C142.793 731.07 148.212 740.568 153.34 749.571C158.41 758.486 164.062 767.78 173.123 772.529L173.094 772.5Z" fill="#001018"/>
<path d="M243.048 737.509C243.048 737.509 250.565 748.551 243.136 760.788L241.387 757.175C230.083 733.867 196.694 702.779 185.098 692.407C184.107 691.504 185.098 689.96 186.292 690.397C192.644 692.64 204.152 697.914 217.555 709.539C230.578 720.843 240.95 730.982 246.748 736.839C244.855 737.509 243.077 737.509 243.077 737.509H243.048Z" fill="#001018"/>
<path d="M167.092 676.178C158.031 673.294 136.966 667.234 112.842 664.553C100.227 663.155 88.9802 663.738 79.9482 664.961C86.0376 659.63 93.4088 654.91 102.237 651.239C110.832 651.384 121.554 652.841 133.82 657.182C153.748 664.204 163.596 670.439 168.2 674.168C169.19 674.955 168.345 676.557 167.122 676.178H167.092Z" fill="#001018"/>
<path d="M235.095 767.605C225.422 771.539 211.845 768.246 205.551 765.478C200.831 763.41 196.461 764.43 191.071 766.498C186.351 763.759 182.068 760.147 178.397 756.097C170.88 747.822 165.432 737.945 159.43 728.535C153.428 719.124 146.552 709.888 137.112 703.915C128.75 698.642 118.815 696.223 108.967 695.932C99.1194 695.612 89.2716 697.389 79.7443 699.924C71.6155 702.08 63.3702 705.051 56.5525 709.83C57.4557 699.749 61.0976 688.561 68.1484 678.247C85.7171 671.895 105.15 670.788 123.302 675.188C143.143 679.995 161.353 691.299 174.405 706.974C183.146 717.463 189.556 729.729 198.297 740.218C208.144 752.105 220.877 761.574 235.095 767.576V767.605Z" fill="white"/>
<path d="M157.303 709.83C157.186 711.782 158.06 713.647 158.964 715.395C163.655 724.66 169.336 733.75 177.756 739.811C178.98 740.685 180.291 741.53 181.777 741.792C183.263 742.054 184.953 741.646 185.856 740.422C186.788 739.14 186.613 737.421 186.293 735.877C184.399 726.496 178.659 718.279 171.987 711.403C169.132 708.461 157.857 700.449 157.332 709.859L157.303 709.83Z" fill="#001018"/>
<path d="M-99.0001 343.059H123.723C120.11 331.419 110.291 321.914 98.6066 318.755C86.6313 315.509 73.0826 318.96 64.0793 327.558C57.0282 311.824 41.6439 301.032 25.2107 296.001C12.9149 292.287 -0.721222 291.468 -12.4051 296.733C-26.5074 303.079 -35.4816 317 -43.6399 330.161C-51.2738 316.269 -64.1524 305.74 -78.8374 299.628C-86.7043 313.432 -93.4933 327.938 -99.0001 343.029V343.059Z" fill="white"/>
<path d="M463 154H79C84.4588 149.387 90.4281 145.483 96.9865 142.723C113.166 135.862 133.313 136.611 146.901 147.77C157.426 106.803 196.501 74.9826 238.601 73.09C280.7 71.1974 322.446 99.3503 336.584 139.253C359.047 125.65 386.734 121.037 412.339 126.596C431.347 130.736 449.059 140.436 463 154Z" fill="white"/>
<path d="M661.875 256.244H413C417.836 248.232 425.062 241.647 433.715 238.035C450.002 231.217 470.309 235.267 482.692 247.853C491.404 220.495 516.227 199.488 544.284 193.166C572.313 186.873 602.672 194.652 625.718 211.842C641.189 223.38 653.426 238.85 661.904 256.244H661.875Z" fill="white"/>
</g>
<defs>
<clipPath id="clip0_408_5782">
<rect width="580" height="800" fill="white"/>
</clipPath>
</defs>
</svg>
