<svg width="1440" height="800" viewBox="0 0 1440 800" fill="none" xmlns="http://www.w3.org/2000/svg">
<g clip-path="url(#clip0_602_6998)">
<rect width="1440" height="800" fill="white"/>
<g clip-path="url(#clip1_602_6998)">
<path d="M-69.0478 556.755V862.8H511.355L511.355 588.136L441.086 521.806C438.725 519.583 435.838 518.209 432.806 517.711C429.307 517.097 425.604 517.711 422.338 519.525L379.215 543.77L360.263 554.415L342.244 564.564L332.622 569.974L302.007 531.75L299.936 529.176L294.426 522.303L290.081 516.892L265.706 486.418L263.577 483.757L253.693 471.385L241.185 455.768L234.595 447.55C234.012 446.848 233.429 446.204 232.729 445.59C232.059 444.976 231.33 444.42 230.572 443.952C229.376 443.221 228.064 442.636 226.723 442.285C225.265 441.788 223.72 441.584 222.174 441.584H181.238L136.86 398.211L123.885 385.519C121.086 382.769 117.558 381.307 113.943 381.044C113.243 380.985 112.572 380.985 111.873 381.044C111.639 381.044 111.464 381.044 111.231 381.132C106.741 381.541 102.367 383.91 99.5682 388.034L92.658 398.241L30.8447 489.401L29.9117 489.138L-8.45916 477.235C-11.4915 476.299 -14.5822 476.299 -17.4687 477.088C-21.3466 478.2 -24.758 480.744 -26.9156 484.429L-68.9603 556.726L-69.0478 556.755Z" fill="#007DBC"/>
<g opacity="0.34">
<path d="M-19.6843 581.264L29.8246 489.138L-8.54629 477.235C-11.5786 476.299 -14.6693 476.299 -17.5558 477.089L-19.6843 581.235V581.264Z" fill="#001018"/>
<path d="M141.029 446.292L113.009 511.892L193.221 441.613H181.237L123.856 385.548C120.503 382.273 116.129 380.81 111.872 381.044L141.088 446.292H141.029Z" fill="#001018"/>
</g>
<path d="M928.645 556.755V862.8H348.242L348.242 588.136L418.511 521.806C420.872 519.583 423.759 518.209 426.791 517.711C430.29 517.097 433.993 517.711 437.259 519.525L480.382 543.77L499.334 554.415L517.354 564.564L526.975 569.974L557.591 531.75L559.661 529.176L565.171 522.303L569.516 516.892L593.891 486.418L596.02 483.757L605.904 471.385L618.412 455.768L625.002 447.55C625.585 446.848 626.168 446.204 626.868 445.59C627.539 444.976 628.268 444.42 629.026 443.952C630.221 443.221 631.533 442.636 632.874 442.285C634.332 441.788 635.878 441.584 637.423 441.584H678.36L722.737 398.211L735.712 385.519C738.511 382.769 742.039 381.307 745.654 381.044C746.354 380.985 747.025 380.985 747.725 381.044C747.958 381.044 748.133 381.044 748.366 381.132C752.856 381.541 757.23 383.91 760.029 388.034L766.939 398.241L828.752 489.401L829.685 489.138L868.056 477.235C871.089 476.299 874.179 476.299 877.066 477.088C880.944 478.2 884.355 480.744 886.513 484.429L928.558 556.726L928.645 556.755Z" fill="#007DBC"/>
<g opacity="0.34">
<path d="M879.281 581.264L829.773 489.138L868.143 477.235C871.176 476.299 874.266 476.299 877.153 477.089L879.281 581.235V581.264Z" fill="#001018"/>
<path d="M718.568 446.292L746.588 511.892L666.376 441.613H678.36L735.741 385.548C739.094 382.273 743.468 380.81 747.725 381.044L718.509 446.292H718.568Z" fill="#001018"/>
<path d="M426.82 517.712L389.674 701.232L348.271 656.865L332.731 570L418.791 521.5C421.544 519.194 423.788 518.209 426.82 517.712Z" fill="#001018"/>
</g>
<path d="M1502.05 525.755V863H921.645V557.136L991.914 490.806C994.276 488.583 997.162 487.209 1000.19 486.711C1003.69 486.097 1007.4 486.711 1010.66 488.525L1053.79 512.77L1072.74 523.415L1090.76 533.564L1100.38 538.974L1130.99 500.75L1133.06 498.176L1138.57 491.303L1142.92 485.892L1167.29 455.418L1169.42 452.757L1179.31 440.385L1191.82 424.768L1198.4 416.55C1198.99 415.848 1199.57 415.204 1200.27 414.59C1200.94 413.976 1201.67 413.42 1202.43 412.952C1203.62 412.221 1204.94 411.636 1206.28 411.285C1207.74 410.788 1209.28 410.584 1210.83 410.584H1251.76L1296.14 367.211L1309.11 354.519C1311.91 351.769 1315.44 350.307 1319.06 350.044C1319.76 349.985 1320.43 349.985 1321.13 350.044C1321.36 350.044 1321.54 350.044 1321.77 350.132C1326.26 350.541 1330.63 352.91 1333.43 357.034L1340.34 367.241L1402.16 458.401L1403.09 458.138L1441.46 446.235C1444.49 445.299 1447.58 445.299 1450.47 446.088C1454.35 447.2 1457.76 449.744 1459.92 453.429L1501.96 525.726L1502.05 525.755Z" fill="#007DBC"/>
<g opacity="0.34">
<path d="M1459.68 550.264L1410.21 458.138L1448.55 446.235C1451.58 445.299 1454.67 445.299 1457.56 446.089L1459.68 550.235V550.264Z" fill="#001018"/>
<path d="M1299.07 415.292L1327.07 480.892L1246.91 410.613H1258.88L1316.23 354.548C1319.58 351.273 1323.95 349.81 1328.21 350.044L1299.01 415.292H1299.07Z" fill="#001018"/>
<path d="M1000.5 486.712L963.378 670.232L926 625.5V553L992.226 490.806C994.587 488.584 997.471 487.209 1000.5 486.712Z" fill="#001018"/>
</g>
<path d="M-94.9107 874.805C-105.815 868.57 -115.99 861.257 -125.087 852.546V581.615C-124.62 581.498 -124.183 581.411 -123.717 581.352C-105.203 578.235 -85.2019 587.675 -75.872 603.962C-77.9129 576.749 -64.5013 545.312 -37.9113 539.077C-24.9078 536.047 -11.9627 539.66 -0.591951 546.798C4.36452 549.915 9.02943 553.732 13.257 557.957C15.8227 560.521 18.2427 563.259 20.5168 566.086C21.479 567.338 22.4119 568.591 23.3158 569.844C23.5782 570.223 23.8697 570.631 24.1321 571.009C41.3632 596.008 49.0894 625.755 53.5503 656.085C53.9584 658.765 54.3083 661.475 54.6873 664.185C55.2413 668.322 55.737 672.459 56.1743 676.596C56.6116 680.559 57.0198 684.463 57.3988 688.396C58.0694 686.473 58.8566 684.638 59.8479 682.919C60.7226 681.287 61.7722 679.743 62.8801 678.286C65.0376 675.518 67.6325 673.042 70.4897 670.944C72.035 669.779 73.6677 668.73 75.3879 667.797C80.8109 664.767 86.9336 662.815 93.2312 662.058C93.9601 661.941 94.7181 661.883 95.447 661.825C97.4005 661.65 99.3831 661.621 101.278 661.737C101.803 661.737 102.328 661.796 102.853 661.854C104.835 662 106.789 662.291 108.713 662.699C111.745 663.369 114.661 664.272 117.489 665.408C122.154 667.273 126.556 669.779 130.638 672.751C132.125 673.829 133.583 674.965 135.011 676.159C143.292 683.239 150.143 692.242 155.187 701.886C155.595 702.644 155.974 703.43 156.353 704.217C157.199 705.878 157.986 707.597 158.744 709.316C159.677 711.472 160.581 713.686 161.368 715.9C163.905 722.66 165.887 729.594 167.607 736.645C169.503 744.249 171.019 751.941 172.506 759.603C172.681 760.332 172.797 761.089 172.943 761.818C173.293 761.381 173.672 760.973 174.109 760.565C182.739 751.3 194.926 746.288 207.667 745.298C212.799 744.919 218.018 745.152 223.091 746.055C228.31 746.988 228.158 746.417 240.167 752C252.175 757.583 372.259 889 -94.9107 874.805Z" fill="#75B8D8"/>
<path d="M-18.2858 748.749C-28.9288 769.772 -18.2858 801 -18.2858 801H152.106C149.738 792.426 143.544 784.296 136.779 779.744C126.187 772.588 111.77 771.551 100.269 777.119C102.299 754.148 85.746 732.447 64.8381 722.708C49.4902 715.552 31.4575 713.774 15.4119 719.067C0.782766 723.873 -11.9648 734.755 -18.2858 748.77C-18.2858 748.77 -7.64285 727.726 -18.2858 748.749Z" fill="#E8F6FD"/>
<path d="M1557.46 874.805C1568.36 868.57 1578.54 861.257 1587.63 852.546V581.615C1587.17 581.498 1586.73 581.411 1586.26 581.352C1567.75 578.235 1547.75 587.675 1538.42 603.962C1540.46 576.749 1527.05 545.312 1500.46 539.077C1487.46 536.047 1474.51 539.66 1463.14 546.798C1458.18 549.915 1453.52 553.732 1449.29 557.957C1446.73 560.521 1444.31 563.259 1442.03 566.086C1441.07 567.338 1440.14 568.591 1439.23 569.844C1438.97 570.223 1438.68 570.631 1438.42 571.009C1421.18 596.008 1413.46 625.755 1409 656.085C1408.59 658.765 1408.24 661.475 1407.86 664.185C1407.31 668.322 1406.81 672.459 1406.37 676.596C1405.94 680.559 1405.53 684.463 1405.15 688.396C1404.48 686.473 1403.69 684.638 1402.7 682.919C1401.83 681.287 1400.78 679.743 1399.67 678.286C1397.51 675.518 1394.92 673.042 1392.06 670.944C1390.51 669.779 1388.88 668.73 1387.16 667.797C1381.74 664.767 1375.61 662.815 1369.32 662.058C1368.59 661.941 1367.83 661.883 1367.1 661.825C1365.15 661.65 1363.16 661.621 1361.27 661.737C1360.74 661.737 1360.22 661.796 1359.7 661.854C1357.71 662 1355.76 662.291 1353.83 662.699C1350.8 663.369 1347.89 664.272 1345.06 665.408C1340.39 667.273 1335.99 669.779 1331.91 672.751C1330.42 673.829 1328.97 674.965 1327.54 676.159C1319.26 683.239 1312.4 692.242 1307.36 701.886C1306.95 702.644 1306.57 703.43 1306.19 704.217C1305.35 705.878 1304.56 707.597 1303.8 709.316C1302.87 711.472 1301.97 713.686 1301.18 715.9C1298.64 722.66 1296.66 729.594 1294.94 736.645C1293.05 744.249 1291.53 751.941 1290.04 759.603C1289.87 760.332 1289.75 761.089 1289.6 761.818C1289.26 761.381 1288.88 760.973 1288.44 760.565C1279.81 751.3 1267.62 746.288 1254.88 745.298C1249.75 744.919 1244.53 745.152 1239.46 746.055C1234.24 746.988 1234.39 746.417 1222.38 752C1210.37 757.583 1090.29 889 1557.46 874.805Z" fill="#75B8D8"/>
<path d="M1235 743.69L1236.16 754.71C1236.16 754.71 1246.8 752.25 1252.33 754.67C1253.33 755.11 1254.25 755.65 1255.08 756.22C1258.91 758.87 1261.09 762.47 1261.09 762.47L1265.08 761.01L1286.04 753.36L1285.11 750.58L1281.8 742.51L1273.72 722.81C1273.52 722.55 1273.31 722.29 1273.1 722.03C1270.41 718.74 1267.49 715.66 1264.39 712.82L1264.2 712.88L1262.78 713.33L1263.95 718.83L1260.01 711L1254.85 712.73L1253.46 713.19L1256.18 722.07L1251.5 712.8L1245.87 714.8L1244.81 715.19L1247.81 725.92L1243.02 718.21L1237.13 721.34L1246.42 740.62L1247.41 742.68L1235 743.69V743.69Z" fill="#FA818F"/>
<path d="M1280.44 747.58L1273.55 734.16C1271.43 730.03 1266.54 728.16 1262.2 729.83C1257.21 731.75 1254.95 737.55 1257.33 742.34L1264.18 756.15L1280.75 747.88L1280.45 747.58H1280.44Z" fill="white"/>
<path d="M1262.78 713.33L1263.96 718.84C1264.62 717.03 1264.46 714.63 1264.2 712.89L1262.78 713.34V713.33Z" fill="#FFE0DF"/>
<path d="M1253.46 713.19L1256.18 722.07C1256.83 718.29 1255.54 714.42 1254.85 712.72L1253.46 713.18V713.19Z" fill="#FFE0DF"/>
<path d="M1244.81 715.18L1247.81 725.91C1248.21 722.15 1246.65 717.06 1245.87 714.8L1244.82 715.18H1244.81Z" fill="#FFE0DF"/>
<path d="M1236.16 754.71C1236.16 754.71 1246.8 752.24 1252.34 754.67C1253.34 755.11 1254.26 755.64 1255.09 756.22C1258.92 758.87 1261.09 762.47 1261.09 762.47L1265.09 761.01C1264.7 759.44 1263.74 756.21 1261.87 752.75C1259.11 747.63 1254.34 742.02 1246.43 740.62L1247.42 742.68L1235.01 743.7L1236.16 754.72V754.71Z" fill="#001018"/>
<path d="M1255.09 756.22C1258.92 758.87 1261.09 762.47 1261.09 762.47L1265.09 761.01L1286.05 753.36L1285.11 750.58L1281.81 742.51L1261.87 752.75L1255.09 756.22V756.22Z" fill="white"/>
<path d="M1459.01 714.023V807H1309.9C1319.15 779.211 1350.77 758.436 1377.74 777.586C1378.46 756.722 1392.05 737.617 1409.93 726.88C1424.59 718.06 1441.8 714.361 1458.99 714L1459.01 714.023Z" fill="#E8F6FD"/>
<path d="M136.618 610.024C139.724 607.337 141.832 602.998 142.432 597.859C143.067 592.431 142.232 586.639 139.906 580.611C135.491 569.137 126.607 559.514 115.524 554.212L115.142 555.029C126.025 560.24 134.746 569.681 139.07 580.938C141.323 586.821 142.159 592.485 141.541 597.751C140.887 603.215 138.507 607.718 135.001 610.133C129.841 613.673 122.864 612.475 118.249 609.733C112.726 606.447 109.019 600.91 106.403 596.443L105.622 596.897C108.293 601.454 112.09 607.101 117.777 610.496C122.646 613.401 130.004 614.636 135.509 610.859C135.891 610.605 136.254 610.314 136.618 610.006V610.024Z" fill="#001018"/>
<path d="M139.179 612.075C144.521 607.464 147.41 599.675 146.683 591.722C146.083 585.041 143.067 578.033 137.962 571.442C132.166 563.98 124.572 557.952 115.978 554.012L115.596 554.829C124.045 558.715 131.53 564.633 137.235 571.987C142.232 578.432 145.193 585.295 145.775 591.795C146.465 599.457 143.703 606.955 138.58 611.385H138.562C134.637 614.78 129.223 616.433 124.081 615.833C118.921 615.234 114.07 612.347 111.072 608.135C109.583 606.047 108.529 603.596 107.602 601.454C104.604 594.536 101.661 587.474 98.8449 580.447L98.0092 580.792C100.825 587.819 103.769 594.9 106.766 601.817C107.711 604.014 108.801 606.483 110.328 608.662C113.471 613.092 118.558 616.106 123.972 616.741C129.35 617.377 135.019 615.634 139.143 612.093H139.161L139.179 612.075Z" fill="#001018"/>
<path d="M101.97 583.48L96.8465 569.608L91.723 571.079L97.5914 585.804L101.97 583.48Z" fill="#001018"/>
<path d="M94.2848 582.771L110.655 629.504L114.543 640.598L117.45 648.895L121.447 660.279L144.466 725.967C145.066 727.638 146.61 728.727 148.318 728.781C148.609 728.781 148.918 728.781 149.227 728.709C151.752 728.219 153.26 725.622 152.424 723.189L126.988 650.638L122.937 639.036L119.957 630.539L116.033 619.355L102.66 581.209L94.2848 582.789V582.771Z" fill="white"/>
<path d="M4.27703 714.565C4.27703 714.565 4.38604 714.565 4.42238 714.565C4.47689 714.565 4.51321 714.565 4.54955 714.565L4.62224 714.729L4.42238 714.674C4.42238 714.674 4.31337 714.674 4.27703 714.638C4.24069 714.638 4.22252 714.638 4.18618 714.602C4.22252 714.602 4.25885 714.602 4.29519 714.602L4.27703 714.565ZM11.8897 708.32L21.1012 696.791L21.7916 695.919L26.6244 689.855L27.4784 688.802L28.3868 687.658L32.2749 682.792C31.966 689.982 31.639 697.172 31.3119 704.344L26.9696 709.627L26.897 709.718L24.317 712.841L17.2494 721.428L16.232 722.699L16.1956 722.736L16.014 722.845L9.58226 726.512C9.6186 726.385 9.63678 726.222 9.65495 726.076L14.7967 721.229C14.5605 720.902 14.2879 720.593 14.0154 720.303C13.8882 720.157 13.7429 720.03 13.5975 719.885C12.7254 718.995 11.7807 718.215 10.7632 717.543C10.8723 716.871 10.9449 716.199 11.0176 715.509C10.7269 715.328 10.4362 715.146 10.1273 714.983C9.38241 714.565 8.60117 714.184 7.80175 713.857C7.72907 713.821 7.67456 713.785 7.56555 713.767L10.7814 709.736L11.926 708.302L11.8897 708.32ZM13.9609 638.546L12.4711 639.145L11.9078 639.363L10.9449 639.763L6.31191 641.578C6.5481 640.126 6.74795 638.71 6.96598 637.257C7.07499 636.476 7.18402 635.678 7.29303 634.897C7.47471 633.517 7.67457 632.119 7.83809 630.739C8.05611 629.105 8.2378 627.489 8.43766 625.873L11.9078 624.475L12.0532 624.621C12.3621 624.893 12.6528 625.183 12.9616 625.438C12.7981 627.798 12.6164 630.176 12.4529 632.537C12.3076 634.588 12.1259 636.658 11.9805 638.71C12.1441 638.855 12.3257 638.982 12.4893 639.109L13.9791 638.528L13.9609 638.546ZM-26.5188 627.87L-26.2463 628.688L-22.8487 638.437L-9.40394 633.027L-2.08199 630.067L0.825002 628.887L7.42019 626.255L8.40131 625.855L11.8715 624.457L12.035 624.385L13.0161 623.985L15.5961 622.95L16.5772 622.551L18.3214 621.861L18.9391 621.625L19.9202 621.225L22.6273 620.136L22.7 620.1L23.5358 619.773L31.1484 616.686L31.9842 616.341L33.801 615.615L34.8548 615.198L35.7996 614.798L38.2887 613.818L39.2516 613.418L40.6688 612.837L41.6136 612.456L47.0096 610.277L93.8665 591.431L96.0649 590.56H96.1194L96.8098 590.233L99.3716 589.216L103.151 601.308L106.657 612.51L105.204 614.253L104.895 614.635L97.8999 623.186L80.7488 644.029L45.756 686.605L41.3592 691.943L40.4689 693.014V693.069L35.9086 698.606L34.9093 699.823L32.2385 703.073L31.2393 704.289L26.897 709.572L26.8243 709.663L24.2444 712.786L17.1768 721.374L16.1593 722.645L16.123 722.681L15.9776 722.845L12.9071 726.585L12.8708 726.621L9.38241 730.815L8.80103 731.523L7.9471 732.612C7.83809 732.74 7.76541 732.83 7.65639 732.939C7.38386 733.212 7.075 733.429 6.74796 733.629C5.54883 734.337 4.16803 734.446 2.89622 733.992C2.85989 733.992 2.84171 733.992 2.80538 733.956C2.49651 733.865 2.20582 733.702 1.93329 733.502C1.93329 733.502 1.89695 733.502 1.87879 733.502C1.82428 733.502 1.76976 733.448 1.75159 733.411C1.64258 733.321 1.56992 733.266 1.47907 733.157C1.27922 733.012 1.07934 732.812 0.915823 732.594C0.788643 732.449 0.661468 732.267 0.552456 732.086C0.516119 731.977 0.461627 731.941 0.42529 731.832C0.42529 731.795 0.370786 731.759 0.370786 731.705C0.298112 731.578 0.243585 731.487 0.207248 731.342L-0.446824 729.653L-1.24622 727.565L-2.7179 723.716L-5.69755 715.927L-6.11543 714.801L-6.7695 713.095L-9.85816 705.015L-17.1438 685.97L-20.832 676.311L-29.2259 654.396L-33.3502 643.594L-37.9832 631.52L-38.3284 630.576L-26.5369 627.852L-26.5188 627.87ZM-9.84 672.698L-7.26006 680.196L-6.5878 682.139L-5.46135 685.425L-4.98898 686.823L3.62296 711.915L3.8955 712.695L4.33153 713.948L4.45873 714.293L4.54955 714.529L4.62224 714.693L5.1673 716.272L5.29447 716.617L6.36641 715.255L7.42019 713.948L7.54739 713.785L10.7632 709.754L11.9078 708.32L21.1193 696.791L21.8097 695.919L26.6426 689.855L27.4965 688.802L28.405 687.658L32.293 682.792L33.2742 681.558L35.8178 678.38L36.817 677.128L40.3418 672.698L41.2865 671.536L46.2102 665.381L70.9377 634.443L92.4494 607.518L46.9188 625.51H46.8643L43.4849 626.89H43.4123L41.4319 627.689L40.4871 628.07L38.7247 628.76L37.78 629.16L35.8904 629.904L35.3454 630.122L34.4006 630.503L31.4391 631.665L30.6034 632.01L27.5874 633.208L23.8265 634.697L22.918 635.06L22.0823 635.405L21.9914 635.442L18.9209 636.658L17.958 637.057L14.9783 638.238L13.9973 638.637L12.5074 639.236L11.9442 639.454L10.9813 639.853L6.34825 641.669L5.34897 642.068L-3.62633 645.609L-5.0798 646.19L-17.3255 651.019L-9.82181 672.807L-9.84 672.698ZM6.96598 637.257C7.07499 636.476 7.18402 635.678 7.29303 634.897C7.47471 633.517 7.67457 632.119 7.83809 630.739C8.05611 629.105 8.2378 627.489 8.43766 625.873L11.9078 624.475L12.0532 624.621C12.3621 624.893 12.6528 625.183 12.9616 625.438C12.7981 627.798 12.6164 630.176 12.4529 632.537C12.3076 634.588 12.1259 636.658 11.9805 638.71C12.1441 638.855 12.3257 638.982 12.4893 639.109L13.9791 638.528L12.4893 639.127L11.926 639.345L10.9631 639.745L6.33009 641.56C6.56628 640.108 6.76614 638.691 6.98416 637.239L6.96598 637.257ZM7.7654 713.875C7.7654 713.875 7.63824 713.803 7.52923 713.785L10.7451 709.754L11.8897 708.32L21.1012 696.791L21.7916 695.919L26.6244 689.855L27.4784 688.802L28.3868 687.658L32.2749 682.792C31.966 689.982 31.639 697.172 31.3119 704.344L26.9696 709.627L26.897 709.718L24.317 712.841L17.2494 721.428L16.232 722.699L16.1956 722.736L16.014 722.845L9.58226 726.512C9.6186 726.385 9.63678 726.222 9.65495 726.076L14.7967 721.229C14.5605 720.902 14.2879 720.593 14.0154 720.303C13.8882 720.157 13.7429 720.03 13.5975 719.885C12.7254 718.995 11.7807 718.215 10.7632 717.543C10.8723 716.871 10.9449 716.199 11.0176 715.509C10.7269 715.328 10.4362 715.146 10.1273 714.983C9.38241 714.565 8.60117 714.184 7.80175 713.857L7.7654 713.875ZM4.27703 714.565C4.27703 714.565 4.38604 714.565 4.42238 714.565C4.47689 714.565 4.51321 714.565 4.54955 714.565L4.62224 714.729L4.42238 714.674C4.42238 714.674 4.31337 714.674 4.27703 714.638C4.24069 714.638 4.22252 714.638 4.18618 714.602C4.22252 714.602 4.25885 714.602 4.29519 714.602L4.27703 714.565ZM4.27703 714.565C4.27703 714.565 4.38604 714.565 4.42238 714.565C4.47689 714.565 4.51321 714.565 4.54955 714.565L4.62224 714.729L4.42238 714.674C4.42238 714.674 4.31337 714.674 4.27703 714.638C4.24069 714.638 4.22252 714.638 4.18618 714.602C4.22252 714.602 4.25885 714.602 4.29519 714.602L4.27703 714.565Z" fill="white"/>
<path d="M93.9758 591.468L98.0274 623.204L105.022 614.671L96.1742 590.596L93.9758 591.468Z" fill="#001018"/>
<path d="M-36.6749 725.95L-56.0972 723.935V734.156L-39.1096 736.208L-31.6604 737.098L-21.704 738.296L-19.8508 738.514L-9.0223 739.821L-7.82319 739.966L-5.47942 740.257L-1.60953 740.711L0.189178 740.929L1.71534 741.128L2.16955 738.532L2.5511 736.299L2.73277 735.355L2.95082 734.029L3.02348 733.575L3.27784 732.177L3.29602 731.996L3.62305 730.089L3.31418 730.053L2.76912 730.017L0.534386 729.763L-0.41039 729.69L-1.28248 729.581L-4.04411 729.309L-6.76941 729.018L-9.53105 728.728L-19.4148 727.711L-21.2135 727.529L-29.353 726.694L-36.6749 725.95Z" fill="white"/>
<path d="M90.6326 572.259L110.745 564.343L107.093 557.607L87.8346 565.16C85.8361 565.94 84.8731 568.246 85.727 570.225C86.5446 572.114 88.7249 573.021 90.6326 572.277V572.259Z" fill="#001018"/>
<path d="M136.181 538.652C136.181 538.652 139.016 541.503 136.163 544.498C133.293 547.494 118.776 553.504 118.213 557.026C117.649 560.548 116.832 570.48 112.38 566.394C109.092 563.362 103.46 555.646 107.729 552.088C111.944 548.583 133.529 534.876 136.181 538.652V538.652Z" fill="white"/>
<path d="M117.468 648.913L120.932 658.898C122.985 655.793 125.371 653.979 127.006 650.638L122.955 639.036C121.283 642.395 119.448 645.699 117.468 648.913Z" fill="#FA818F"/>
<path d="M110.655 629.504L114.543 640.598C116.578 637.366 118.376 634.007 119.957 630.521L116.032 619.337C114.379 622.805 112.599 626.2 110.655 629.504V629.504Z" fill="#FA818F"/>
<path d="M22.6818 620.136C24.753 621.97 26.8969 623.713 29.1317 625.365C31.2937 626.981 33.5466 628.488 35.8904 629.886L46.9369 625.51C42.3947 622.478 38.0525 619.174 33.8737 615.651L22.6818 620.154V620.136Z" fill="#FA818F"/>
<path d="M0.861217 628.905C4.53128 632.555 8.34669 636.004 12.471 639.127L23.79 634.642C19.6294 631.483 15.6687 628.052 11.8896 624.475L0.861217 628.905V628.905Z" fill="#FA818F"/>
<path d="M208.947 676.692L214.089 675.149C218.485 673.841 219.975 668.358 216.832 665.017C208.02 655.649 189.543 640.416 160.255 637.003C126.371 633.045 97.6641 653.924 87.0173 662.948C84.4918 665.09 84.0921 668.848 86.1452 671.463C88.2346 674.132 92.0863 674.622 94.7753 672.534C105.277 664.436 131.421 646.716 155.24 650.075C185.927 654.414 207.693 677.872 207.693 677.872L208.965 676.674L208.947 676.692Z" fill="#FA818F"/>
<path d="M103.46 666.343C108.22 663.202 113.961 659.789 120.266 656.902L121.12 659.299C119.83 659.825 118.54 660.424 117.322 661.06C116.559 661.423 115.869 661.786 115.16 662.204C110.836 664.509 106.748 667.324 102.951 670.61C102.315 671.155 101.679 671.736 101.062 672.317C101.788 670.301 102.606 668.304 103.496 666.343H103.46ZM71.5556 720.666C72.0644 703.236 78.4416 687.332 88.725 674.768C89.0339 674.386 89.3246 674.041 89.6516 673.678C91.2141 671.826 92.8493 670.047 94.5935 668.377C98.5361 664.491 102.915 661.042 107.657 658.1C111.163 655.922 114.851 654.015 118.685 652.399C121.265 651.292 123.899 650.366 126.625 649.585C134.147 647.37 142.104 646.317 150.389 646.571C174.336 647.298 195.393 659.026 208.892 676.71C219.158 690.182 225.062 707.158 224.517 725.387C224.408 728.528 224.136 731.632 223.663 734.701C222.646 741.491 220.72 748.045 217.958 754.218C213.889 763.351 208.002 771.703 200.462 778.765C199.644 779.528 198.791 780.29 197.955 781.017C197.41 781.489 196.846 781.961 196.283 782.415C195.229 783.286 194.176 784.103 193.086 784.884C179.386 794.906 162.889 800.026 145.684 799.499C142.849 799.409 140.07 799.173 137.308 798.791C120.084 796.395 104.332 788.279 92.2679 775.443C89.906 772.919 87.7439 770.286 85.7635 767.527C76.0251 753.964 71.0106 737.66 71.5556 720.702V720.666ZM83.5833 748.19C83.8558 748.989 84.1828 749.716 84.528 750.46C86.8355 755.889 89.8878 760.991 93.6124 765.711C94.866 767.327 96.2105 768.888 97.6458 770.413C100.771 773.736 104.187 776.732 107.82 779.328C108.492 779.8 109.165 780.272 109.855 780.708C119.612 787.19 130.858 791.093 142.758 791.965C143.231 792.019 143.703 792.037 144.194 792.074C144.775 792.128 145.357 792.146 145.938 792.164C146.174 792.164 146.41 792.164 146.647 792.164C157.312 792.4 167.686 790.222 177.115 785.828C177.86 785.501 178.587 785.156 179.314 784.757C181.512 783.649 183.638 782.433 185.709 781.071C189.125 778.838 192.377 776.296 195.429 773.409C198.336 770.686 200.989 767.763 203.296 764.64C203.805 763.968 204.277 763.333 204.732 762.643C210.473 754.527 214.325 745.304 216.069 735.481C216.196 734.755 216.323 734.029 216.432 733.303C216.578 732.504 216.687 731.705 216.759 730.87C216.995 728.981 217.141 727.075 217.177 725.151C217.45 716.182 216.051 707.412 213.053 699.242C212.762 698.461 212.49 697.717 212.163 696.954C208.983 689.165 204.368 681.939 198.445 675.639C195.357 672.407 192.032 669.448 188.471 666.888C187.817 666.398 187.163 665.944 186.454 665.472C176.007 658.464 163.761 654.451 150.862 653.943C150.644 653.906 150.389 653.888 150.171 653.888C149.572 653.852 149.009 653.852 148.409 653.888C141.777 653.834 135.255 654.723 129.059 656.503C126.77 657.138 124.59 657.864 122.428 658.754C121.992 658.899 121.519 659.117 121.12 659.299C119.83 659.825 118.54 660.424 117.322 661.06C116.559 661.423 115.869 661.786 115.16 662.204C110.836 664.509 106.748 667.324 102.951 670.61C102.315 671.155 101.679 671.736 101.062 672.317C100.934 672.426 100.825 672.534 100.698 672.643C99.6262 673.66 98.5724 674.695 97.5731 675.766C95.3384 678.145 93.3035 680.65 91.4503 683.265C90.9779 683.936 90.5055 684.608 90.0876 685.298C88.1254 688.239 86.4358 691.344 85.0004 694.576C82.1116 700.949 80.2221 707.793 79.4045 714.856C79.2955 715.673 79.241 716.472 79.1501 717.289C79.0593 718.469 79.0048 719.686 78.9684 720.866C78.6778 730.361 80.2766 739.585 83.656 748.154L83.5833 748.19ZM103.46 666.361C108.22 663.22 113.961 659.807 120.266 656.92L121.12 659.317C119.83 659.843 118.54 660.443 117.322 661.078C116.559 661.441 115.869 661.804 115.16 662.222C110.836 664.528 106.748 667.342 102.951 670.628C102.315 671.173 101.679 671.754 101.062 672.335C101.788 670.319 102.606 668.322 103.496 666.361H103.46Z" fill="#001018"/>
<path d="M125.062 720.757C124.681 733.175 134.437 743.56 146.865 743.942C159.292 744.323 169.684 734.573 170.066 722.155C170.448 709.736 160.691 699.351 148.264 698.969C135.836 698.588 125.444 708.338 125.062 720.757Z" fill="#001018"/>
<path d="M148.454 652.26L150.906 652.336L146.469 795.809L144.018 795.733L148.454 652.26Z" fill="#001018"/>
<path d="M116.429 659.369L180.768 787.706L178.575 788.803L114.236 660.467L116.429 659.369Z" fill="#001018"/>
<path d="M89.3783 681.908L207.057 764.219L205.65 766.227L87.9718 683.916L89.3783 681.908Z" fill="#001018"/>
<path d="M76.3262 714.564L219.01 731.112L218.727 733.546L76.0435 716.998L76.3262 714.564Z" fill="#001018"/>
<path d="M213.745 696.326L214.654 698.602L81.2481 751.816L80.3388 749.539L213.745 696.326Z" fill="#001018"/>
<path d="M187.304 664.303L189.322 665.696L107.695 783.808L105.677 782.415L187.304 664.303Z" fill="#001018"/>
<path d="M-10.8937 733.575C-11.0754 739.312 -6.56958 744.105 -0.8283 744.287C4.91299 744.469 9.70949 739.966 9.89118 734.229C10.0729 728.491 5.56706 723.698 -0.174228 723.517C-5.91551 723.335 -10.712 727.838 -10.8937 733.575Z" fill="#001018"/>
<path d="M7.40213 713.948L7.52933 713.785C7.63834 713.785 7.69282 713.84 7.7655 713.876C8.56492 714.203 9.34617 714.566 10.0911 715.001C10.3999 715.165 10.6907 715.346 10.9814 715.528C10.9087 716.2 10.836 716.872 10.727 717.561C10.4363 717.362 10.1456 717.162 9.85491 716.981C8.74662 716.291 7.56565 715.728 6.34835 715.274L7.40213 713.967V713.948ZM-21.486 728.473C-21.4133 728.165 -21.3406 727.856 -21.2316 727.547C-20.1778 723.916 -18.1793 720.739 -15.3995 718.106C-14.0005 716.817 -12.4925 715.71 -10.8755 714.82C-9.96707 714.33 -9.04048 713.912 -8.07754 713.585C-7.65967 713.422 -7.20545 713.277 -6.7694 713.15C-4.55283 712.478 -2.24541 712.187 0.134683 712.242C1.29747 712.278 2.44209 712.387 3.53221 712.641C3.65939 712.641 3.76842 712.678 3.8956 712.714C4.09546 712.75 4.2953 712.786 4.47698 712.841C4.54966 712.841 4.60416 712.841 4.64049 712.895C4.96753 712.968 5.2764 713.023 5.58527 713.113C6.25751 713.313 6.89342 713.531 7.52933 713.803C7.63834 713.803 7.69282 713.858 7.7655 713.894C8.56492 714.221 9.34617 714.584 10.0911 715.02C10.3999 715.183 10.6907 715.365 10.9814 715.546C12.5439 716.508 13.9973 717.707 15.2873 719.105C15.9959 719.831 16.65 720.63 17.2314 721.447C17.3585 721.61 17.4494 721.792 17.5584 721.973C17.9218 722.464 18.2306 722.972 18.5032 723.499C20.3564 726.857 21.3011 730.652 21.174 734.574C20.9923 740.384 18.5577 745.74 14.3244 749.698C14.2335 749.807 14.1427 749.897 14.0337 749.988L13.634 750.351C11.272 752.385 8.54675 753.873 5.60343 754.727C5.27639 754.836 4.94937 754.908 4.62233 754.999C3.15068 755.362 1.67902 755.544 0.134683 755.58C-0.174184 755.58 -0.483058 755.58 -0.810094 755.58C-0.919105 755.58 -1.02812 755.58 -1.1553 755.58C-1.22798 755.58 -1.28248 755.58 -1.35516 755.58C-1.68219 755.58 -2.00921 755.58 -2.29991 755.526C-6.84206 755.144 -11.0754 753.401 -14.5092 750.46C-15.127 749.952 -15.7084 749.389 -16.2716 748.79C-19.0696 745.83 -20.9591 742.236 -21.6858 738.35C-22.0855 736.716 -22.2127 735.009 -22.14 733.285C-22.1037 731.651 -21.8857 730.053 -21.4497 728.528L-21.486 728.473ZM-19.869 738.55C-19.1059 741.691 -17.5797 744.632 -15.3813 747.101C-15.236 747.228 -15.127 747.374 -14.9816 747.519C-14.7636 747.755 -14.5456 747.973 -14.3094 748.191C-14.2549 748.245 -14.1822 748.318 -14.1277 748.354C-10.8392 751.477 -6.66039 753.347 -2.06373 753.656H-2.02739C-1.73669 753.728 -1.42781 753.746 -1.13712 753.746H-0.610238C-0.483057 753.746 -0.355875 753.746 -0.210526 753.746C-0.0288395 753.746 0.152852 753.746 0.334539 753.746C1.87887 753.692 3.40505 753.456 4.85854 753.057C5.20374 752.966 5.53075 752.875 5.85779 752.748C8.14703 751.985 10.2728 750.787 12.1623 749.207C12.3985 749.044 12.6347 748.826 12.8527 748.626C12.9436 748.554 12.9981 748.481 13.0889 748.409C13.2343 748.263 13.3615 748.136 13.4886 747.991C16.7953 744.723 18.7757 740.511 19.2117 735.917C19.3026 735.463 19.3389 735.009 19.3389 734.556C19.3389 734.392 19.3389 734.247 19.3389 734.102C19.4116 730.67 18.5577 727.348 16.9225 724.406C16.6681 723.916 16.3593 723.426 16.0141 722.936C16.0141 722.899 16.0141 722.881 15.9777 722.863C15.6325 722.3 15.2146 721.774 14.7604 721.265C14.5242 720.92 14.2517 720.612 13.9792 720.321C13.852 720.176 13.7066 720.049 13.5613 719.904C12.6892 719.014 11.7444 718.233 10.727 717.561C10.4363 717.362 10.1456 717.162 9.85491 716.981C8.74662 716.291 7.56565 715.728 6.34835 715.274C6.02131 715.147 5.6761 715.02 5.34907 714.911C5.11288 714.838 4.85853 714.784 4.62233 714.711L4.42248 714.657C4.42248 714.657 4.31346 714.657 4.27713 714.62C4.24079 714.62 4.22262 714.62 4.18628 714.584C3.89558 714.511 3.62305 714.457 3.33235 714.421C2.27857 714.221 1.20662 714.076 0.0983376 714.039C-2.02739 713.985 -4.11677 714.239 -6.07898 714.838C-6.55137 714.947 -7.02375 715.11 -7.44163 715.292C-8.69527 715.764 -9.93073 716.363 -11.0754 717.071C-11.9111 717.598 -12.7105 718.179 -13.4554 718.832L-13.6916 719.032L-14.1095 719.413C-14.4002 719.704 -14.7091 719.994 -14.9816 720.303C-17.0165 722.445 -18.5063 724.951 -19.3966 727.729C-19.5238 728.128 -19.6328 728.51 -19.76 728.909C-20.087 730.18 -20.2868 731.487 -20.3232 732.867C-20.3232 733.012 -20.3595 733.158 -20.3595 733.303C-20.3595 733.775 -20.3959 734.229 -20.3595 734.664C-20.3232 735.99 -20.1597 737.243 -19.869 738.532V738.55ZM7.40213 713.985L7.52933 713.821C7.63834 713.821 7.69282 713.876 7.7655 713.912C8.56492 714.239 9.34617 714.602 10.0911 715.038C10.3999 715.201 10.6907 715.383 10.9814 715.564C10.9087 716.236 10.836 716.908 10.727 717.598C10.4363 717.398 10.1456 717.198 9.85491 717.017C8.74662 716.327 7.56565 715.764 6.34835 715.31L7.40213 714.003V713.985Z" fill="#001018"/>
<path d="M-0.806352 714.087L1.00964 714.143L-0.241231 754.594L-2.05723 754.537L-0.806352 714.087Z" fill="#001018"/>
<path d="M-13.726 719.043L14.0327 748.511L12.7098 749.755L-15.0489 720.288L-13.726 719.043Z" fill="#001018"/>
<path d="M-20.7585 732.79L19.7189 734.076L19.6612 735.89L-20.8163 734.605L-20.7585 732.79Z" fill="#001018"/>
<path d="M13.6023 719.793L14.8467 721.116L-14.6605 748.835L-15.9049 747.512L13.6023 719.793Z" fill="#001018"/>
<path d="M34.2896 712.403L35.1898 713.98L-1.62919 734.967L-2.52937 733.39L34.2896 712.403Z" fill="#001018"/>
<path d="M22.897 708.813L47.022 714.316L46.2173 717.839L22.0923 712.335L22.897 708.813Z" fill="#001018"/>
<path d="M351.244 241H-33.0229C-27.5604 236.387 -21.5869 232.483 -15.024 229.723C1.16728 222.862 21.3277 223.611 34.9252 234.77C45.4574 193.803 84.56 161.983 126.689 160.09C168.817 158.197 210.592 186.35 224.74 226.253C247.219 212.65 274.925 208.037 300.548 213.596C319.569 217.736 337.293 227.436 351.244 241Z" fill="#E8F6FD"/>
<path d="M1348.28 186.414H1113.77C1120.07 178.195 1129.63 172.434 1139.93 171.118C1152.9 169.451 1166.58 174.832 1174.95 184.922C1182.26 171.323 1193.14 159.683 1206.14 151.406C1230.81 135.73 1262.74 133.039 1290.41 142.398C1313.73 150.265 1333.94 166.292 1348.26 186.414H1348.28Z" fill="#E8F6FD"/>
<path d="M1526.78 282.059H1303.91C1307.52 270.419 1317.35 260.914 1329.04 257.755C1341.02 254.509 1354.58 257.96 1363.59 266.558C1370.65 250.824 1386.04 240.032 1402.49 235.001C1414.79 231.287 1428.44 230.468 1440.13 235.733C1454.24 242.079 1463.22 256 1471.38 269.161C1479.02 255.269 1491.91 244.74 1506.61 238.628C1514.48 252.432 1521.27 266.938 1526.78 282.029V282.059Z" fill="#E8F6FD"/>
<path d="M1298.89 766.606C1299.19 769.265 1298.11 771.991 1296.29 773.958C1294.47 775.925 1291.99 777.214 1289.41 777.92C1286.67 778.666 1283.78 778.815 1280.99 778.354C1277.38 777.757 1273.99 776.142 1270.35 775.736C1267.48 775.41 1264.51 775.871 1261.86 777.038C1259.76 777.96 1257.82 779.344 1255.57 779.737C1253.33 780.131 1250.91 779.452 1249.2 777.947L1249 774.053C1250.79 776.102 1254.59 775.803 1257.13 774.827C1259.66 773.85 1261.91 772.181 1264.52 771.435C1268.63 770.269 1273.04 771.585 1276.92 773.402C1278.75 774.257 1280.55 775.234 1282.55 775.586C1285.42 776.088 1288.53 775.166 1290.65 773.145C1292.76 771.123 1293.85 768.085 1293.48 765.182C1295.16 765.806 1297.12 766.47 1298.89 766.592V766.606Z" fill="#001018"/>
<path d="M1344.88 753.203C1340.04 753.312 1335.85 756.784 1333.12 760.8C1331.33 763.445 1330 767.067 1331.8 769.712C1332.81 771.191 1334.61 771.978 1336.39 772.168C1338.17 772.357 1339.96 772.045 1341.72 771.72C1344.79 771.164 1347.84 770.608 1350.9 770.065C1354.7 769.373 1358.58 768.695 1362.38 769.373C1366.18 770.051 1369.92 772.385 1371.16 776.034H1364.06C1363.84 773.456 1361.06 772.263 1358.47 772.086C1355.9 771.91 1353.4 772.887 1350.92 773.619C1348.18 774.447 1345.37 775.016 1342.53 775.315C1339.1 775.681 1335.48 775.613 1332.39 774.08C1329.29 772.534 1326.89 769.183 1327.38 765.765C1327.65 763.879 1328.72 762.211 1329.84 760.664C1332.07 757.531 1334.6 754.6 1337.34 751.901C1339.54 752.159 1342.75 752.62 1344.89 753.217L1344.88 753.203Z" fill="#001018"/>
<path d="M1268.32 756.893C1269.2 757.205 1270.03 757.205 1270.03 757.205C1270.03 757.205 1266.53 762.346 1269.99 768.044C1270.03 768.125 1270.08 768.193 1270.14 768.275C1271.03 769.685 1272.29 770.621 1273.74 771.205C1278.25 773.036 1284.57 771.503 1287.5 770.214C1289.7 769.251 1291.73 769.726 1294.24 770.689C1296.15 771.422 1298.31 772.439 1301.02 773.321C1301.51 773.484 1302.04 773.538 1302.61 773.497C1309.19 773.05 1320.22 759.81 1329.06 755.672C1338.67 751.169 1344.68 762.197 1348.2 761.139C1348.95 760.922 1350.62 760.434 1352.31 759.05C1354.55 757.219 1356.83 753.814 1356.98 747.302C1356.99 746.339 1356.98 745.335 1356.87 744.304C1356.45 739.611 1354.76 734.402 1351.47 729.6C1349.98 727.429 1348.16 725.327 1345.98 723.414C1343.14 720.931 1339.71 718.734 1335.6 717.024C1333.4 716.116 1331 715.342 1328.4 714.732C1310.83 710.622 1289.26 725.164 1289.26 725.164L1288.72 725.367C1276.38 733.072 1267.2 749.134 1266.39 753.19C1265.92 755.496 1267.16 756.473 1268.33 756.893H1268.32Z" fill="#FA818F"/>
<path d="M1285.53 734.917C1284.77 736.843 1283.02 738.186 1281.37 739.421C1280.69 739.923 1279.86 740.465 1279.05 740.208C1278.44 740.018 1278.03 739.407 1277.92 738.77C1277.83 738.132 1277.99 737.495 1278.23 736.898C1279.06 734.863 1280.69 733.289 1282.53 732.15C1283.33 731.648 1284.2 731.024 1285.07 731.702C1286.03 732.448 1285.93 733.9 1285.53 734.917V734.917Z" fill="white"/>
<path d="M1277.34 742.283C1277.46 742.839 1277.3 743.436 1276.99 743.911C1276.67 744.386 1276.23 744.752 1275.74 745.051C1275.29 745.335 1274.75 745.566 1274.23 745.43C1273.54 745.254 1273.15 744.454 1273.23 743.748C1273.31 743.043 1273.76 742.432 1274.26 741.917C1275.17 740.994 1276.97 740.601 1277.34 742.27V742.283Z" fill="white"/>
<path d="M1302.6 773.497C1309.18 773.049 1320.21 759.809 1329.05 755.672C1338.65 751.168 1344.66 762.197 1348.19 761.139C1348.94 760.922 1350.61 760.433 1352.3 759.05C1350.82 758.914 1349.36 758.466 1348.01 757.87C1345.44 756.717 1343.16 754.994 1340.73 753.569C1337.73 751.806 1334.44 750.449 1330.99 749.988C1327.54 749.54 1323.89 750.042 1320.88 751.792C1316.71 754.207 1314.18 758.629 1311.79 762.821C1309.43 766.972 1306.8 771.299 1302.58 773.51L1302.6 773.497Z" fill="#001018"/>
<path d="M1270.03 757.205C1270.03 757.205 1266.53 762.346 1269.99 768.043L1270.8 766.361C1276.06 755.509 1291.61 741.035 1297.01 736.205C1297.47 735.785 1297.01 735.066 1296.45 735.269C1293.49 736.314 1288.14 738.769 1281.9 744.182C1275.83 749.445 1271 754.166 1268.3 756.893C1269.19 757.205 1270.01 757.205 1270.01 757.205H1270.03Z" fill="#001018"/>
<path d="M1305.39 728.65C1309.61 727.307 1319.42 724.485 1330.65 723.237C1336.52 722.586 1341.76 722.857 1345.97 723.427C1343.13 720.944 1339.7 718.747 1335.59 717.038C1331.59 717.105 1326.59 717.784 1320.88 719.805C1311.6 723.074 1307.02 725.977 1304.88 727.714C1304.41 728.08 1304.81 728.826 1305.38 728.65H1305.39Z" fill="#001018"/>
<path d="M1273.73 771.218C1278.23 773.049 1284.56 771.516 1287.49 770.228C1289.68 769.264 1291.72 769.739 1294.23 770.702C1296.42 769.427 1298.42 767.745 1300.13 765.86C1303.63 762.007 1306.16 757.408 1308.96 753.027C1311.75 748.645 1314.96 744.345 1319.35 741.564C1323.24 739.109 1327.87 737.983 1332.45 737.847C1337.04 737.698 1341.62 738.525 1346.06 739.705C1349.85 740.709 1353.68 742.093 1356.86 744.318C1356.44 739.624 1354.74 734.415 1351.46 729.613C1343.28 726.656 1334.23 726.14 1325.78 728.188C1316.54 730.427 1308.06 735.69 1301.99 742.988C1297.92 747.872 1294.93 753.583 1290.86 758.466C1286.28 764.001 1280.35 768.41 1273.73 771.204V771.218Z" fill="white"/>
<path d="M1309.95 744.318C1310 745.227 1309.6 746.095 1309.18 746.909C1306.99 751.222 1304.35 755.455 1300.43 758.276C1299.86 758.683 1299.25 759.077 1298.55 759.199C1297.86 759.321 1297.08 759.131 1296.66 758.561C1296.22 757.964 1296.3 757.164 1296.45 756.445C1297.33 752.077 1300.01 748.252 1303.11 745.05C1304.44 743.68 1309.69 739.95 1309.94 744.331L1309.95 744.318Z" fill="#001018"/>
</g>
</g>
<defs>
<clipPath id="clip0_602_6998">
<rect width="1440" height="800" fill="white"/>
</clipPath>
<clipPath id="clip1_602_6998">
<rect width="1440" height="800" fill="white"/>
</clipPath>
</defs>
</svg>
