<svg width="580" height="800" viewBox="0 0 580 800" fill="none" xmlns="http://www.w3.org/2000/svg">
<g clip-path="url(#clip0_408_6137)">
<rect width="580" height="800" fill="#FFE5BA"/>
<path d="M210 113H-70C-66.0196 109.64 -61.667 106.796 -56.8848 104.786C-45.0869 99.7886 -30.3968 100.334 -20.4889 108.462C-12.8145 78.6216 15.6781 55.4441 46.3755 54.0656C77.073 52.687 107.513 73.1934 117.822 102.259C134.201 92.35 154.389 88.9897 173.06 93.0393C186.92 96.055 199.834 103.12 210 113Z" fill="white"/>
<path d="M-34 390H200C196.674 387.209 193.036 384.848 189.039 383.178C179.18 379.028 166.903 379.481 158.623 386.231C152.209 361.448 128.398 342.199 102.743 341.054C77.089 339.91 51.65 356.94 43.0348 381.079C29.3461 372.85 12.4745 370.059 -3.12866 373.422C-14.7114 375.927 -25.5044 381.795 -34 390Z" fill="white"/>
<path d="M-38.2082 717.099L-33.0001 801L581 801L589.281 493.699C594.228 465.218 594.825 436.985 591.565 409.701C583.491 408.267 575.364 407.697 567.186 408.544C547.197 410.642 526.884 423.921 523.413 443.72C521.513 454.66 521.616 470.287 510.612 471.549C507.242 471.936 503.958 470.523 500.608 470.233C485.897 468.973 478.418 487.234 475.613 501.708C471.694 521.657 467.807 541.61 463.92 561.564C463.018 566.2 461.983 571.04 458.869 574.612C447.957 587.095 424.119 572.754 411.769 583.821C408.249 586.934 406.434 591.606 404.186 595.782C402.491 599.017 400.545 602.015 397.391 603.766C394.195 605.575 390.406 605.759 386.739 605.802C370.739 606.002 354.51 604.349 338.834 607.715C332.578 609.057 326.304 611.432 320.762 614.809C312.445 619.809 305.729 626.965 302.933 636.162C302.182 638.623 301.703 641.195 301.261 643.741C300.499 647.754 299.743 651.736 297.736 655.273C290.169 668.629 270.845 667.831 255.834 664.576C240.822 661.321 222.335 658.498 212.571 670.339C210.804 672.493 209.502 674.955 208.398 677.581C205.374 684.925 204.151 693.456 200.06 699.481C198.54 701.711 196.659 703.586 194.127 704.928C189.268 707.549 183.38 707.141 177.885 706.705L71.2823 697.904C58.0029 696.795 43.5358 695.999 32.5105 703.54C28.4314 706.329 25.1165 710.125 20.8556 712.656C14.609 716.364 7.06202 716.931 -0.204823 717.191C-12.8183 717.656 -25.5058 717.427 -38.2082 717.099Z" fill="#007DBC"/>
<path opacity="0.37" d="M208.398 677.58C225.62 686.012 243.777 692.599 261.909 698.954C281.475 705.818 301.143 712.473 320.88 718.913C348.499 727.888 376.441 736.498 405.272 740.178C407.997 740.522 411.396 740.529 412.75 738.141C405.251 731.722 398.085 724.875 391.378 717.622C390.477 716.656 389.535 715.553 389.476 714.215C389.395 711.513 392.787 710.256 395.449 709.844C408.677 707.705 421.934 705.96 435.257 704.582C433.315 704.763 427.038 699.139 425.162 698.003C421.406 695.764 417.534 693.634 413.639 691.63C406.149 687.77 398.451 684.361 390.678 681.197C363.696 670.228 332.213 663.917 307.509 648.227C305.295 646.806 303.259 645.286 301.261 643.741C300.499 647.754 299.743 651.735 297.736 655.273C290.169 668.629 270.845 667.831 255.834 664.576C240.822 661.32 222.335 658.498 212.571 670.339C210.804 672.493 209.502 674.955 208.398 677.58Z" fill="#001018"/>
<path opacity="0.37" d="M320.762 614.808C355.003 622.764 389.515 629.536 424.213 635.045L423.397 627.066C450.522 625.462 477.365 632.198 504.452 634.539C514.534 635.415 524.661 635.652 534.761 635.302C536.944 635.227 537.259 632.108 535.154 631.549L450.367 609.761C437.847 606.518 425.322 603.306 412.985 599.382C409.886 598.39 406.994 597.143 404.186 595.781C402.491 599.017 400.545 602.014 397.391 603.766C394.195 605.575 390.406 605.758 386.739 605.802C370.739 606.002 354.51 604.349 338.834 607.714C332.578 609.056 326.304 611.431 320.762 614.808Z" fill="#001018"/>
<path opacity="0.37" d="M-38.2083 717.1L-41.5 788L133.351 777.211L133.462 777.133C136.637 774.511 138.531 770.695 140.099 766.887C142.979 760.003 145.163 752.837 146.692 745.525C146.96 743.984 147.386 742.277 148.672 741.399C149.952 740.553 151.655 740.817 153.158 741.11C176.349 745.753 199.25 752.063 221.536 760.047C230.285 763.186 239.478 766.564 248.632 768.121C258.031 769.754 263.88 758.27 257.069 751.614C238.66 733.616 219.627 716.223 200.06 699.482C198.539 701.711 196.659 703.587 194.127 704.928C189.267 707.549 183.379 707.142 177.885 706.706L71.2821 697.904C58.0027 696.796 43.5357 695.999 32.5104 703.541C28.4313 706.33 25.1164 710.126 20.8555 712.656C14.6089 716.364 7.06195 716.932 -0.204921 717.191C-12.8184 717.656 -25.5059 717.428 -38.2083 717.1Z" fill="#001018"/>
<path d="M331.788 551.376C332.637 551.523 333.546 551.325 334.258 550.769C335.671 549.719 335.926 547.69 334.871 546.309L302.586 503.783C301.505 502.364 299.508 502.115 298.127 503.17C296.714 504.22 296.459 506.248 297.514 507.63L329.798 550.156C330.297 550.825 331.034 551.245 331.788 551.376Z" fill="#001018"/>
<path d="M149.916 384.516C149.916 384.516 142.383 394.51 139.765 395.415C137.109 396.347 121.541 395.553 120.961 402.059C120.382 408.565 126.63 413.795 126.63 413.795C126.63 413.795 106.176 414.096 100.948 402.987C95.7211 391.878 101.854 375.585 110.525 374.889C119.195 374.193 136.392 363.935 136.392 363.935L149.922 384.485L149.916 384.516Z" fill="#EEA9A5"/>
<path d="M131.068 451.451L122.953 406.258L132.517 404.518L140.809 450.746L131.068 451.451Z" fill="#001018"/>
<path d="M142.402 397.945C145.727 404.158 143.377 411.91 137.164 415.235C130.952 418.561 123.199 416.21 119.874 409.997C116.549 403.785 118.899 396.032 125.112 392.707C131.324 389.382 139.077 391.733 142.402 397.945Z" fill="#001018"/>
<path d="M278.198 447.31C286.43 467.782 294.038 485.879 294.384 488.174C294.384 488.174 258.654 515.453 259.636 516.886C260.623 518.289 336.346 510.78 336.346 510.78C337.193 503.479 329.547 485.602 328.293 483.312C327.677 482.201 324.723 462.29 321.657 441.161C318.335 418.336 314.902 394.099 314.191 390.737C312.845 384.317 321.568 369.705 321.568 369.705L268.747 357.227C268.747 357.227 257.733 373.093 257.446 386.677C257.285 394.13 268.202 422.452 278.198 447.31Z" fill="#EEA9A5"/>
<path d="M259.636 516.887C260.623 518.289 336.346 510.781 336.346 510.781C337.193 503.479 329.547 485.603 328.293 483.312C328.226 483.139 328.088 482.629 327.916 481.757C326.844 476.551 324.303 459.302 321.657 441.161C315.829 441.153 309.813 443.346 304.377 444.442C295.757 446.151 286.987 446.862 278.198 447.311C285.434 465.311 292.18 481.476 293.964 486.676C294.195 487.397 294.334 487.906 294.384 488.174C294.384 488.174 258.654 515.453 259.636 516.887Z" fill="#BEDEEF"/>
<path d="M259.636 516.886C260.623 518.288 336.347 510.779 336.347 510.779C337.194 503.478 329.547 485.601 328.293 483.311C328.226 483.138 328.088 482.628 327.916 481.756C327.215 482.249 326.514 482.743 325.866 483.116C322.042 485.367 317.888 486.912 313.456 487.632C307.017 488.716 300.38 488.146 293.965 486.675C294.196 487.395 294.334 487.905 294.384 488.173C294.384 488.173 258.654 515.452 259.636 516.886Z" fill="#1375AF"/>
<path d="M320.635 301.438L259.367 355.857L324.608 383.154L369.188 304.367L320.635 301.438Z" fill="#BEDEEF"/>
<path d="M131.969 493.06L134.523 530.746L147.365 529.9L145.908 490.559L131.969 493.06Z" fill="#001018"/>
<path d="M327.34 436.967L320.744 365.126L304.946 368.082L310.922 438.455L327.34 436.967Z" fill="#FFB53F"/>
<path d="M274.04 357.888C274.04 357.888 296.032 352.09 315.751 345.768C328.163 341.803 339.399 336.403 347.672 334.084C355.334 331.917 361.95 340.255 357.785 347.078C355.562 350.74 351.266 354.592 343.365 357.948C320.364 367.684 299.341 373.682 284.757 373.189C277.283 372.96 269.335 370.802 263.369 368.794C260.004 367.659 259.995 362.865 263.339 361.697L274.066 357.925L274.04 357.888Z" fill="#001018"/>
<path d="M128.507 492.297L128.333 444.078L144.952 443.111L145.344 454.093L318.368 426.535L458.991 494.712C462.813 496.574 462.434 502.111 458.412 503.453L327.394 442.805L145.584 470.424L148.208 491.671C148.416 493.455 147.042 495.03 145.253 495.076L131.55 495.286C129.86 495.317 128.48 493.943 128.475 492.291L128.507 492.297Z" fill="#FFB53F"/>
<path d="M457.744 494.431L326.111 548.448L329.614 556.99L457.234 504.641C461.663 502.82 461.952 496.684 457.776 494.437L457.744 494.431Z" fill="#FFB53F"/>
<path d="M162.255 462.439L333.91 554.628L339.318 547.73L172.981 455.688L164.275 461.624" fill="#FFB53F"/>
<path d="M354.335 537.157C360.475 552.149 353.324 569.269 338.332 575.408C323.34 581.548 306.221 574.397 300.081 559.405C293.941 544.413 301.092 527.293 316.084 521.154C331.076 515.014 348.196 522.165 354.335 537.157Z" fill="#001018"/>
<path d="M365.695 538.929C346.44 490.188 370.343 435.067 419.084 415.812C467.825 396.557 522.947 420.46 542.202 469.201C561.457 517.943 537.554 573.064 488.812 592.319C440.071 611.574 384.95 587.671 365.695 538.929Z" stroke="#001018" stroke-width="3" stroke-miterlimit="10"/>
<path d="M480.913 490.814C487.053 505.805 479.901 522.925 464.909 529.065C449.918 535.205 432.798 528.054 426.658 513.062C420.518 498.07 427.67 480.95 442.661 474.81C457.653 468.671 474.773 475.822 480.913 490.814Z" fill="#001018"/>
<path d="M419.567 418.529L490.574 591.62" stroke="#001018" stroke-miterlimit="10"/>
<path d="M464.965 412.037L445.182 598.082" stroke="#001018" stroke-miterlimit="10"/>
<path d="M507.964 427.926L402.146 582.219" stroke="#001018" stroke-miterlimit="10"/>
<path d="M538.29 462.339L371.852 547.811" stroke="#001018" stroke-miterlimit="10"/>
<path d="M548.601 507.006L361.545 503.111" stroke="#001018" stroke-miterlimit="10"/>
<path d="M531.852 558.503L378.289 451.646" stroke="#001018" stroke-miterlimit="10"/>
<path d="M375.692 442.548L344.352 439.145C340.316 438.703 339.098 433.407 342.575 431.29C373.376 412.255 461.433 358.539 464.872 363.346C469.039 369.187 402.901 430.952 375.723 442.553L375.692 442.548Z" fill="#001018"/>
<path d="M125.654 725.553C74.0204 716.585 39.4337 667.457 48.4023 615.823C57.371 564.19 106.499 529.603 158.132 538.572C209.766 547.541 244.352 596.668 235.384 648.302C226.415 699.935 177.287 734.522 125.654 725.553Z" stroke="#001018" stroke-width="3" stroke-miterlimit="10"/>
<path d="M118.075 647.212C108.519 634.138 111.37 615.793 124.443 606.236C137.517 596.679 155.863 599.53 165.419 612.604C174.976 625.678 172.125 644.024 159.051 653.58C145.978 663.137 127.632 660.286 118.075 647.212Z" fill="#001018"/>
<path d="M107.526 546.525L178.533 719.615" stroke="#001018" stroke-miterlimit="10"/>
<path d="M152.919 540.064L133.136 726.109" stroke="#001018" stroke-miterlimit="10"/>
<path d="M195.955 555.926L90.1363 710.22" stroke="#001018" stroke-miterlimit="10"/>
<path d="M226.249 590.334L59.8109 675.806" stroke="#001018" stroke-miterlimit="10"/>
<path d="M236.554 635.034L49.4985 631.138" stroke="#001018" stroke-miterlimit="10"/>
<path d="M219.842 686.504L66.2485 579.641" stroke="#001018" stroke-miterlimit="10"/>
<path d="M80.6716 533.148C81.4694 531.538 82.5024 530.066 83.3167 529.106C93.0195 517.805 109.415 516.637 123.306 514.97C140.804 512.86 159.28 512.572 176.288 517.761C199.074 524.73 211 531.951 216.735 536.412C218.592 537.836 217.397 540.802 214.968 540.801C214.968 540.801 84.1256 541.229 83.963 541.233C78.0983 541.251 78.7944 536.87 80.6716 533.148Z" fill="#001018"/>
<path d="M130.572 449.649C130.559 450.844 130.739 452.042 131.256 453.168C131.442 453.589 131.696 453.989 131.999 454.301C132.332 454.618 132.75 454.82 133.144 454.791C133.863 454.754 134.308 454.054 134.534 453.316C134.878 452.08 134.735 450.663 134.451 449.318C134.217 448.241 133.458 446.458 132.209 446.565C130.923 446.698 130.586 448.453 130.572 449.649Z" fill="#FFF6DF"/>
<path d="M132.323 458.956C132.639 459.561 133.25 459.959 133.853 460.031C134.461 460.072 135.035 459.751 135.264 459.175C135.376 458.903 135.431 458.589 135.423 458.264C135.414 457.938 135.375 457.607 135.267 457.297C135.045 456.708 134.482 456.222 133.922 456.092C132.413 455.83 131.458 457.413 132.297 458.919L132.323 458.956Z" fill="#FFF6DF"/>
<path d="M335.748 383.34C334.727 393.882 368.073 436.819 391.883 467.542C404.716 484.085 414.756 497.131 415.189 499.668C416.394 506.905 392.02 547.297 394.44 547.717C396.861 548.138 457.726 516.545 457.673 512.002C457.657 507.433 439.23 487.295 439.23 487.295C439.23 487.295 436.044 472.266 428.323 445.309C427.396 442.071 426.143 438.842 424.654 435.669C413.818 412.478 390.392 392.411 390.392 392.411L397.704 371.756L342.452 351.829C342.452 351.829 337.344 367.069 335.748 383.34Z" fill="#EEA9A5"/>
<path d="M340.11 338.469C339.517 344.681 338.219 356.438 337.161 360.852L336.326 365.662L332.814 383.641L393.451 396.246C393.451 396.246 420.869 345.599 422.628 311.609C424.392 277.588 386.398 263.831 386.398 263.831L325.51 297.978L338.566 299.631C338.566 299.631 340.782 331.429 340.11 338.469Z" fill="#BEDEEF"/>
<path d="M332.814 383.641C332.814 383.641 341.727 344.255 341.754 327.323" stroke="#001018" stroke-width="0.75" stroke-linecap="round" stroke-linejoin="round"/>
<path d="M138.707 280.881C138.707 280.881 153.91 275.944 158.999 272.002L153.003 263.642L138.707 280.881Z" fill="#001018"/>
<path d="M199.033 283.523L200.706 284.332L201.067 284.491L209.867 288.643L210.437 288.904L213.402 290.293C213.402 290.293 221.633 279.449 225.239 269.875C228.813 260.294 227.938 250.233 227.938 250.233L209.846 245.698L199.033 283.523Z" fill="#EEA9A5"/>
<path d="M200.706 284.332L201.067 284.492L209.867 288.644C212.107 283.204 213.443 277.38 213.782 271.512C213.9 268.78 213.894 265.832 213.125 263.173C212.905 262.39 212.547 261.097 211.498 260.979C210.288 260.866 210.444 261.833 210.237 262.833C209.148 268.732 206.279 274.063 203.426 279.299C202.523 280.956 201.583 282.639 200.706 284.332Z" fill="#001018"/>
<path d="M220.915 248.722C220.915 248.722 213.835 234.668 211.801 229.781C209.768 224.894 197.814 216.34 183.912 215.836C166.92 215.217 159.414 226.737 155.999 230.548C152.585 234.359 160.744 227.098 160.744 227.098L179.2 238.302L199.111 249.889L220.946 248.727L220.915 248.722Z" fill="#001018"/>
<path d="M147.815 246.711C147.111 250.767 147.23 254.738 148.034 258.505C149.645 266.007 153.964 272.651 160.112 277.151C160.196 277.231 160.342 277.321 160.426 277.4C158.806 282.624 158.811 288.001 160.391 289.344C161.862 290.571 167.125 289.542 172.092 285.742C173.957 286.94 175.884 288.149 177.822 289.295C178.298 289.54 178.768 289.816 179.213 290.055C187.448 294.659 195.742 297.622 199.028 293.432C206.14 284.369 221.876 263.689 209.654 251.462C209.618 249.059 209.288 246.67 208.711 244.4C205.794 232.85 196.343 223.501 183.831 221.328C166.887 218.385 150.758 229.767 147.815 246.711Z" fill="#EEA9A5"/>
<path d="M147.815 246.711C147.11 250.766 147.23 254.738 148.033 258.505C165.978 257.736 171.554 240.925 171.554 240.925C171.554 240.925 175.949 244.15 188.282 249.401C195.641 252.525 203.533 248.293 208.711 244.4C205.794 232.85 196.343 223.501 183.831 221.328C166.887 218.384 150.758 229.767 147.815 246.711Z" fill="#001018"/>
<path d="M193.096 244.246L172.429 261.803C172.429 261.803 181.787 273.371 176.182 279.166C170.577 284.96 158.766 278.569 153.635 271.007L193.896 239.268L193.039 244.204L193.096 244.246Z" fill="#001018"/>
<path d="M185.823 289.296C186.298 289.54 186.768 289.816 187.213 290.055C189.138 286.989 190.295 283.499 190.603 279.86C190.674 279.452 190.351 279.072 189.874 279.021C189.46 278.982 189.049 279.299 189.035 279.75C188.739 283.131 187.615 286.433 185.823 289.296Z" fill="#001018"/>
<path d="M203.413 257.372C203.413 257.372 220.265 246.115 208.773 235.278C197.275 224.472 187.73 244.188 191.073 251.602L203.413 257.372Z" fill="#EEA9A5"/>
<path d="M139.395 265.36C140.043 267.966 139.657 271.493 138.974 274.678C138.617 276.365 138.181 277.941 137.784 279.296C137.472 280.343 138.689 281.17 139.554 280.478C147.244 274.236 167.679 257.643 176.613 249.835C184.745 242.731 200.176 226.79 207.921 218.744C209.939 216.633 209.898 213.517 208.229 211.381C207.782 210.785 207.187 210.293 206.482 209.879C205.948 209.592 205.415 209.306 204.851 209.013C202.389 207.711 199.795 206.613 197.131 205.729C195.697 205.221 194.252 204.776 192.797 204.393C178.863 200.71 163.772 202.202 153.558 210.855C152.798 211.501 152.064 212.183 151.356 212.902C136.369 228.337 137.816 259.159 139.395 265.36Z" fill="#1375AF"/>
<path d="M137.783 279.297C137.472 280.344 138.689 281.17 139.554 280.479C147.244 274.237 167.679 257.643 176.613 249.836C184.745 242.731 200.176 226.79 207.921 218.744C209.939 216.633 209.898 213.517 208.228 211.381C204.88 217.05 200.027 221.68 195.14 226.142C176.803 242.776 157.029 257.801 138.974 274.678C138.616 276.365 138.181 277.941 137.783 279.297Z" fill="#BEDEEF"/>
<path d="M145.097 238.499C144.954 240.255 144.87 244.095 145.453 246.333C150.303 233.509 158.561 221.763 169.778 213.867C176.609 209.03 184.568 205.717 192.797 204.393C178.864 200.71 163.773 202.202 153.558 210.855C152.316 212.971 151.246 215.214 150.303 217.479C147.146 225.027 145.772 230.326 145.097 238.499Z" fill="#BEDEEF"/>
<path d="M186.92 221.443C186.92 221.443 165.229 239.308 162.229 242.22C159.23 245.131 158.195 237.665 163.492 229.356C168.789 221.046 180.154 217.515 186.92 221.443Z" fill="#001018"/>
<path d="M185.854 213.226C190.426 210.587 200.636 209.414 204.851 209.013C202.389 207.711 199.795 206.612 197.131 205.729C193.283 207.748 186.819 212.519 185.854 213.226Z" fill="#001018"/>
<path d="M414.087 505.081C409.548 518.347 392.397 547.364 394.44 547.718C396.829 548.133 457.725 516.546 457.673 512.003C457.662 508.148 444.467 493.129 440.396 488.6C439.668 487.761 439.23 487.297 439.23 487.297C439.23 487.297 436.044 472.267 428.323 445.31C427.396 442.073 426.143 438.843 424.654 435.67C420.023 441.634 416.387 448.03 410.91 453.458C405.311 459.028 398.874 463.836 391.882 467.544C404.715 484.087 414.755 497.133 415.189 499.669C415.386 500.772 414.959 502.674 414.119 505.086L414.087 505.081Z" fill="#BEDEEF"/>
<path d="M394.44 547.719C396.829 548.134 457.725 516.547 457.672 512.004C457.662 508.148 444.467 493.129 440.396 488.601C432.896 496.171 424.169 502.039 414.119 505.086C409.58 518.353 392.428 547.369 394.471 547.724L394.44 547.719Z" fill="#1375AF"/>
<path d="M223.199 246.754L207.516 289.498L213.001 291.292C213.001 291.292 205.238 304.29 192.339 316.655C179.44 329.02 131.881 361.563 131.881 361.563L146.593 389.476C146.593 389.476 203.875 367.883 227.773 345.706C247.77 327.158 256.382 318.971 256.382 318.971C256.382 318.971 268.958 314.808 287.923 316.742C302.024 318.155 315.808 322.881 322.008 325.221C324.195 326.054 326.631 325.829 328.659 324.595C341.469 316.845 387.311 287.469 386.429 263.837C386.429 263.837 373.713 260.786 356.303 254.75C338.897 248.683 299.987 233.116 269.078 236.555C238.169 239.995 231.127 245.67 231.127 245.67L224.087 244.997L223.225 246.791L223.199 246.754Z" fill="#1375AF"/>
<path d="M294.172 272.749C294.172 272.749 271.268 302.256 253.928 321.168C236.588 340.08 183.504 379.08 146.562 389.471" stroke="#001018" stroke-width="0.75" stroke-linecap="round" stroke-linejoin="round"/>
<path d="M224.771 267.721C224.771 267.721 217.568 283.828 209.32 296.45C201.072 309.072 181.622 327.456 163.912 338.985C146.203 350.515 131.886 361.532 131.886 361.532" stroke="#001018" stroke-width="0.75" stroke-linecap="round" stroke-linejoin="round"/>
<path d="M326.478 542.423L397.857 555.08L432.239 533.137C433.73 532.198 435.694 532.636 436.639 534.095C437.578 535.586 437.14 537.55 435.649 538.49L375.925 576.563C375.088 577.097 374.132 577.19 373.243 576.906C372.567 576.692 371.936 576.226 371.5 575.567C370.56 574.076 370.999 572.112 372.49 571.173L389.86 560.103L325.329 548.667C325.329 548.667 325.046 548.618 324.92 548.596C323.412 548.14 322.453 546.581 322.726 545.009C323.026 543.28 324.686 542.111 326.415 542.412L326.478 542.423Z" fill="#001018"/>
<path d="M133 808.43L585.98 808.43L585.979 621.807C578.13 618.649 569.675 617.085 561.188 617.596C543.735 618.585 524.655 631.06 523.442 649.853C501.969 639.165 477.497 633.485 453.758 636.963C430.051 640.441 407.27 653.905 395.433 674.772C382.606 697.362 383.787 724.994 385.574 750.934C366.717 736.767 341.638 729.78 318.857 735.97C296.075 742.159 277.027 762.931 276.261 786.51C251.693 768.419 219.691 759.421 189.858 765.898C165.992 771.099 144.231 787.02 133 808.43Z" fill="#FFCC7A"/>
<ellipse cx="404" cy="97.24" rx="64" ry="64.24" fill="#FFCC7A"/>
<path d="M411 292.628L703.127 295.29C702.224 288.505 701.029 281.807 699.631 275.198C687.714 273.121 674.864 278.122 667.434 287.686C660.267 267.564 645.698 250.221 627.109 239.751C615.949 233.463 602.983 229.632 590.367 231.679C581.83 233.054 573.905 237.061 566.854 242.003C553.13 251.625 542.204 265.225 535.648 280.667C519.244 262.944 494.39 253.468 470.41 255.778C446.401 258.059 423.82 272.098 411.029 292.599L411 292.628Z" fill="white"/>
<path d="M349 161.414H583.348C577.055 153.195 567.498 147.434 557.213 146.118C544.247 144.451 530.581 149.832 522.219 159.922C514.906 146.323 504.038 134.683 491.043 126.406C466.393 110.73 434.488 108.039 406.837 117.398C383.527 125.265 363.335 141.292 349.029 161.414H349Z" fill="white"/>
</g>
<defs>
<clipPath id="clip0_408_6137">
<rect width="580" height="800" fill="white"/>
</clipPath>
</defs>
</svg>
